<svg xmlns="http://www.w3.org/2000/svg" viewBox="0 0 24 24"><path d="M13.744.844 12 3.75 10.256.844A1 1 0 0 0 8.898.493l-.676.39a1 1 0 0 0-.362 1.373L10.5 6.75v2.652L8.204 8.076 5.632 3.543a1 1 0 0 0-1.37-.373l-.677.39a1 1 0 0 0-.374 1.352l1.645 2.963-3.39.057a1 1 0 0 0-.982 1v.782a1 1 0 0 0 1.008 1l5.212-.04L9 12l-2.297 1.326-5.212-.039a1 1 0 0 0-1.007 1v.78a1 1 0 0 0 .983 1.001l3.388.057L3.21 19.09a1 1 0 0 0 .375 1.351l.677.39a1 1 0 0 0 1.37-.372l2.571-4.534 2.297-1.326v2.652l-2.64 4.495a1 1 0 0 0 .362 1.372l.676.391a1 1 0 0 0 1.358-.351L12 20.25l1.744 2.907a1 1 0 0 0 1.358.351l.676-.391a1 1 0 0 0 .362-1.372L13.5 17.25v-2.653l2.297 1.326 2.572 4.534a1 1 0 0 0 1.37.373l.677-.39a1 1 0 0 0 .374-1.352l-1.645-2.964 3.39-.057a1 1 0 0 0 .982-1v-.782a1 1 0 0 0-1.008-.999l-5.212.04L15 12l2.297-1.326 5.212.04a1 1 0 0 0 1.008-1v-.781a1 1 0 0 0-.983-1l-3.389-.058 1.645-2.963a1 1 0 0 0-.375-1.352l-.677-.39a1 1 0 0 0-1.369.373l-2.572 4.533L13.5 9.402V6.75l2.64-4.494a1 1 0 0 0-.362-1.372l-.676-.391a1 1 0 0 0-1.358.35"/></svg>