<svg xmlns="http://www.w3.org/2000/svg" viewBox="0 0 24 24"><path d="M11.225 20.259 0 24l10.5-6-2.237-5.593A3 3 0 0 1 9 9.099l8.664-8.086A3.78 3.78 0 0 1 20.239 0 3.76 3.76 0 0 1 24 3.75a3.75 3.75 0 0 1-1.985 3.309L12.75 12l.511 5.114a3 3 0 0 1-2.036 3.145"/><path d="M9.083 4.104 3.75 9.75l3.045 5.482a1.5 1.5 0 0 1-.54 2.015L0 21l4.5-4.5-3.434-5.15a3 3 0 0 1-.059-3.237l4.291-6.972A2.4 2.4 0 0 1 7.34 0c1 0 1.898.631 2.249 1.567a2.45 2.45 0 0 1-.505 2.536M18.75 17.25l4.154-1.78A1.82 1.82 0 0 0 24 13.8c0-.987-.8-1.8-1.787-1.8-.304 0-.602.078-.868.225l-3.978 2.21a3 3 0 0 0-1.3 3.804L17.25 21 9 24l9.529-1.27a1.5 1.5 0 0 0 1.244-1.9z"/></svg>