<svg xmlns="http://www.w3.org/2000/svg" viewBox="0 0 24 24"><path d="M13.5.093A12 12 0 0 0 12 0C6.408 0 1.71 3.824.378 9h2.427c.424 0 .797-.27.969-.657A9.01 9.01 0 0 1 10.5 3.124v4.548a2 2 0 0 0 .586 1.414L12 10l.914-.914a2 2 0 0 0 .586-1.414zm2.157 3.681a9.01 9.01 0 0 1 5.219 6.726h-4.548a2 2 0 0 0-1.414.586L14 12l.914.914a2 2 0 0 0 1.414.586h7.58q.091-.737.092-1.5c0-5.592-3.824-10.29-9-11.622v2.427c0 .424.27.797.657.969m4.569 11.883c.172-.387.545-.657.97-.657h2.426c-1.332 5.176-6.03 9-11.622 9q-.763 0-1.5-.093v-7.579a2 2 0 0 1 .586-1.414L12 14l.914.914a2 2 0 0 1 .586 1.414v4.548a9.01 9.01 0 0 0 6.726-5.22M.093 10.5h7.579a2 2 0 0 1 1.414.586L10 12l-.914.914a2 2 0 0 1-1.414.586H3.124a9.01 9.01 0 0 0 5.22 6.726c.386.172.656.545.656.97v2.426C3.824 22.29 0 17.592 0 12q0-.763.093-1.5"/></svg>