<svg xmlns="http://www.w3.org/2000/svg" viewBox="0 0 24 24"><path d="M10.5 10.5c.75.75.75 1.5.75 2.25l.001 7.075c0 .23-.19.425-.424.425H9.451v1.55l1.364.758c.267.15.436.433.436.742v.7h-9v-.7c0-.308.166-.593.436-.742L4.05 21.8v-1.55H2.675a.425.425 0 0 1-.424-.425L2.25 12.75c0-.75 0-1.5.75-2.25zm10.5 0c.75.75.75 1.5.75 2.25l.001 7.075c0 .23-.19.425-.424.425h-1.376v1.55l1.363.758c.268.15.437.433.437.742v.7h-9v-.7c0-.308.166-.593.436-.742l1.364-.758v-1.55h-1.376a.425.425 0 0 1-.424-.425l-.001-7.075c0-.75 0-1.5.75-2.25zM6.75 0C9 1.5 10.5 5.25 10.5 8.999H3C3 5.249 4.5 1.5 6.75 0m10.5 0C19.5 1.5 21 5.25 21 8.999h-7.5C13.5 5.249 15 1.5 17.25 0"/></svg>