<svg xmlns="http://www.w3.org/2000/svg" viewBox="0 0 24 24"><path fill-rule="evenodd" d="M15.25.877a6.5 6.5 0 0 0-6.5 0L3.992 3.624a6.5 6.5 0 0 0-3.25 5.63v5.494a6.5 6.5 0 0 0 3.25 5.629l4.758 2.747a6.5 6.5 0 0 0 6.5 0l4.758-2.747a6.5 6.5 0 0 0 3.25-5.63V9.254a6.5 6.5 0 0 0-3.25-5.63zM15 4.5a3 3 0 1 1-6 0 3 3 0 0 1 6 0m0 15a3 3 0 1 1-6 0 3 3 0 0 1 6 0m.897-9.75a3 3 0 1 0 5.196-3 3 3 0 0 0-5.196 3m-12.99 7.5a3 3 0 1 0 5.196-3 3 3 0 0 0-5.196 3M7.005 5.652a3 3 0 1 1-3 5.196 3 3 0 0 1 3-5.196m12.99 7.5a3 3 0 1 1-3 5.196 3 3 0 0 1 3-5.196" clip-rule="evenodd"/></svg>