<svg xmlns="http://www.w3.org/2000/svg" xml:space="preserve" fill-rule="evenodd" stroke-linejoin="round" clip-rule="evenodd" viewBox="0 0 24 24"><path d="M9.745 13.503c0-1.289 1.061-2.35 2.35-2.35s2.35 1.061 2.35 2.35a2.36 2.36 0 0 1-2.35 2.35 2.36 2.36 0 0 1-2.35-2.35m2.35-4.576c-2.511 0-4.577 2.066-4.577 4.576s2.066 4.577 4.576 4.577 4.577-2.066 4.577-4.577-2.067-4.576-4.577-4.576m6.928 2.596a1.49 1.49 0 0 0 1.483-1.484 1.49 1.49 0 0 0-1.483-1.484 1.49 1.49 0 0 0-1.484 1.484 1.49 1.49 0 0 0 1.484 1.484"/><path d="M10.017 2a4.12 4.12 0 0 0-3.93 2.969H4.081C1.784 4.969 0 6.753 0 9.049v8.906c0 2.298 1.784 4.082 4.081 4.082h15.832c2.297 0 4.082-1.784 4.082-4.082V9.08c.118-2.366-1.834-4.111-3.983-4.111H18a4.09 4.09 0 0 0-3.926-2.97zm0 2.226c-.993 0-1.856.813-1.856 1.856v1.113h-4.08c-1.07 0-1.856.788-1.856 1.854v8.906c0 1.069.788 1.856 1.855 1.856h15.832c1.068 0 1.856-.788 1.856-1.856V9.017l.001-.033c.058-.98-.751-1.79-1.759-1.79h-4.08V6.083c0-.993-.814-1.856-1.857-1.856z"/></svg>