<svg xmlns="http://www.w3.org/2000/svg" xml:space="preserve" fill-rule="evenodd" stroke-linejoin="round" clip-rule="evenodd" viewBox="0 0 24 24"><path fill-rule="nonzero" d="M20.8 21.592a.8.8 0 0 1-.565-.234l-17.6-17.6a.8.8 0 0 1-.22-.551.8.8 0 0 1 1.351-.58l17.6 17.6a.8.8 0 0 1 .234.565c0 .439-.361.8-.8.8m-8.817-3.2c-2.074 0-4.075-.614-5.946-1.825-1.703-1.1-3.237-2.675-4.435-4.55v-.004c.997-1.428 2.089-2.636 3.262-3.61a.1.1 0 0 0 .007-.147l-.996-.995a.1.1 0 0 0-.135-.006C2.492 8.305 1.337 9.593.285 11.101a1.6 1.6 0 0 0-.032 1.777c1.321 2.067 3.02 3.807 4.915 5.033 2.132 1.381 4.427 2.081 6.815 2.081a12 12 0 0 0 3.79-.629.1.1 0 0 0 .039-.165l-1.08-1.08a.2.2 0 0 0-.191-.05 10.2 10.2 0 0 1-2.558.324m11.759-7.27c-1.323-2.046-3.04-3.784-4.963-5.027C16.65 4.72 14.3 3.992 11.983 3.992a11.4 11.4 0 0 0-3.745.642.1.1 0 0 0-.037.165l1.078 1.078a.2.2 0 0 0 .194.05 9.6 9.6 0 0 1 2.51-.335c2.035 0 4.029.622 5.928 1.85 1.735 1.12 3.287 2.694 4.488 4.55V12a15.5 15.5 0 0 1-3.206 3.637.1.1 0 0 0-.008.147l.995.995a.1.1 0 0 0 .135.006 17.2 17.2 0 0 0 3.432-3.924 1.61 1.61 0 0 0-.005-1.739"/><path fill-rule="nonzero" d="M12 7.198a4.8 4.8 0 0 0-1.068.12.1.1 0 0 0-.05.169l5.629 5.628a.1.1 0 0 0 .169-.05 4.8 4.8 0 0 0 .12-1.067c0-2.633-2.167-4.8-4.8-4.8m-4.511 3.683a.1.1 0 0 0-.169.05 4.8 4.8 0 0 0-.121 1.071c0 2.633 2.167 4.8 4.8 4.8.36 0 .72-.04 1.071-.121a.1.1 0 0 0 .05-.169z"/></svg>