<svg xmlns="http://www.w3.org/2000/svg" viewBox="0 0 20 20"><path fill-rule="evenodd" d="M2.5 0c-.69 0-1.25.56-1.25 1.25v17.5c0 .69.56 1.25 1.25 1.25h10a2.5 2.5 0 0 0 2.5-2.5v-.625c0-.345.28-.625.625-.625h.625a2.5 2.5 0 0 0 2.5-2.5V1.25C18.75.56 18.19 0 17.5 0zm3.125 3.75A.625.625 0 0 0 5 4.375v1.25c0 .345.28.625.625.625h8.75c.345 0 .625-.28.625-.625v-1.25a.625.625 0 0 0-.625-.625zM5 8.125c0-.345.28-.625.625-.625h8.75c.345 0 .625.28.625.625v1.25c0 .345-.28.625-.625.625h-8.75A.625.625 0 0 1 5 9.375zm.625 3.125a.625.625 0 0 0-.625.625v1.25c0 .345.28.625.625.625h3.75c.345 0 .625-.28.625-.625v-1.25a.625.625 0 0 0-.625-.625z" clip-rule="evenodd"/></svg>