<svg xmlns="http://www.w3.org/2000/svg" xml:space="preserve" fill-rule="evenodd" stroke-linejoin="round" clip-rule="evenodd" viewBox="0 0 24 24"><path d="m6.713 6.173 5.177-4.239c1.6-1.31 3.883-.064 3.883 2.12v15.892c0 2.184-2.282 3.43-3.883 2.12l-5.177-4.239a2.3 2.3 0 0 0-1.455-.53H2.426A2.427 2.65 0 0 1 0 14.65v-5.3a2.427 2.65 0 0 1 2.426-2.648h2.832a2.3 2.3 0 0 0 1.455-.53M18.88 8.607a.91.994 0 1 0-1.287 1.406l1.784 1.947-1.784 1.947a.91.994 0 1 0 1.287 1.405l1.783-1.947 1.783 1.947a.91.994 0 1 0 1.288-1.405L21.95 11.96l1.784-1.948a.91.994 0 1 0-1.288-1.405l-1.783 1.947z"/></svg>