<svg xmlns="http://www.w3.org/2000/svg" xml:space="preserve" fill-rule="evenodd" stroke-linejoin="round" clip-rule="evenodd" viewBox="0 0 24 24"><path fill-rule="nonzero" d="M13.003 1.624a2.37 2.37 0 0 0-2.566.36L4.356 7.196H2.4a2.4 2.4 0 0 0-2.4 2.4v4.8a2.4 2.4 0 0 0 2.4 2.4h1.956l6.084 5.212a2.38 2.38 0 0 0 2.57.359 2.38 2.38 0 0 0 1.39-2.18V3.804a2.36 2.36 0 0 0-1.397-2.18m3.273 5.633a1.2 1.2 0 0 0-.518.758 1.2 1.2 0 0 0 .17.904 5.87 5.87 0 0 1 0 6.151 1.2 1.2 0 0 0-.17.902 1.2 1.2 0 0 0 .953.934 1.2 1.2 0 0 0 .898-.187q.197-.136.328-.335a7.97 7.97 0 0 0 1.262-4.39 8 8 0 0 0-1.262-4.389 1.2 1.2 0 0 0-1.66-.348m5.328-3.485a1.21 1.21 0 0 0-1.231-.51 1.2 1.2 0 0 0-.764.51 1.2 1.2 0 0 0-.002 1.332 12.5 12.5 0 0 1 1.991 6.89 12.56 12.56 0 0 1-1.937 6.81 1.2 1.2 0 0 0 .347 1.661 1.2 1.2 0 0 0 1.662-.347A14.8 14.8 0 0 0 24 11.996a14.95 14.95 0 0 0-2.394-8.223"/></svg>