<svg xmlns="http://www.w3.org/2000/svg" viewBox="0 0 192 60"><path d="M68.36 0a.49.49 0 0 1 .49.49v4.94a.49.49 0 0 1-.49.49H60v16.34l14.42-21A3 3 0 0 1 76.83 0h8.31a.49.49 0 0 1 .49.49V23.2a.49.49 0 0 1-.49.49H80.2a.49.49 0 0 1-.49-.49v-3.46H69.1l-1.83 2.67a3 3 0 0 1-2.44 1.28H54.54a.49.49 0 0 1-.5-.49V5.92h-8.39a.49.49 0 0 1-.49-.49V.49a.49.49 0 0 1 .49-.49Zm4.81 13.82 6.54-9.51v9.51ZM89.09 0a.49.49 0 0 0-.49.49V23.2a.49.49 0 0 0 .49.49H94a.49.49 0 0 0 .49-.49V8.62L104 22.41a3 3 0 0 0 2.44 1.28h5.36a.49.49 0 0 0 .49-.49V.49a.49.49 0 0 0-.49-.49h-4.94a.49.49 0 0 0-.49.49v14.59l-9.49-13.8A3 3 0 0 0 94.44 0Zm26.65 0a.49.49 0 0 0-.49.49V23.2a.49.49 0 0 0 .49.49h4.94a.49.49 0 0 0 .49-.49v-8.39h4.26l5.23 7.6a3 3 0 0 0 2.44 1.28h5.38a.24.24 0 0 0 .24-.24.23.23 0 0 0 0-.14l-7.92-11.46L138.68.39a.25.25 0 0 0-.07-.35.3.3 0 0 0-.13 0h-5.38a3 3 0 0 0-2.44 1.28l-5.23 7.61h-4.26V.49a.49.49 0 0 0-.49-.49Z" fill-rule="evenodd"/><rect x="140.92" width="5.92" height="23.69" rx=".49"/><rect x="102.62" y="26.02" width="1.96" height="10.43" rx=".33"/><path d="M90.55 26a.32.32 0 0 0-.32.33v9.78a.32.32 0 0 0 .32.32h5.87a.32.32 0 0 0 .33-.32v-1.29a.32.32 0 0 0-.33-.32h-4.24v-8.15a.32.32 0 0 0-.32-.33Zm35.21 0a.33.33 0 0 0-.33.33v9.78a.32.32 0 0 0 .33.32h5.87a.32.32 0 0 0 .32-.32v-1.29a.32.32 0 0 0-.32-.32h-4.24v-2.29h4.24a.32.32 0 0 0 .32-.32v-1.31a.32.32 0 0 0-.32-.32h-4.24V28h4.24a.32.32 0 0 0 .32-.33v-1.3a.32.32 0 0 0-.32-.33ZM82.07 36.45h-.13a.32.32 0 0 1-.28-.16l-3.82-6.36v6.2a.32.32 0 0 1-.33.32h-1.3a.33.33 0 0 1-.33-.32v-9.78a.33.33 0 0 1 .33-.33h1.45a.33.33 0 0 1 .28.16l3.81 6.36v-6.19a.33.33 0 0 1 .33-.33h1.3a.33.33 0 0 1 .33.33v9.78a.32.32 0 0 1-.33.32Zm35.21 0h-.14a.33.33 0 0 1-.28-.16l-3.81-6.36v6.2a.33.33 0 0 1-.33.32h-1.3a.32.32 0 0 1-.33-.32v-9.78a.33.33 0 0 1 .33-.33h1.44a.32.32 0 0 1 .28.16l3.86 6.36v-6.19a.32.32 0 0 1 .32-.33h1.31a.32.32 0 0 1 .32.33v9.78a.32.32 0 0 1-.32.32Zm-52.7-10.14a1.49 1.49 0 0 1 1.75 0l3.92 2.84a1.5 1.5 0 0 1 .54 1.67l-1.5 4.6a1.48 1.48 0 0 1-1.42 1H63a1.47 1.47 0 0 1-1.41-1l-1.5-4.6a1.5 1.5 0 0 1 .54-1.67Z" fill-rule="evenodd"/><path opacity=".5" d="M100.44 42.88h2.75v.99h-2.75z"/><path opacity=".25" d="M100.44 43.87h2.75v.99h-2.75z"/><path opacity=".75" d="M100.44 41.89h2.75v.99h-2.75z"/><path d="M100.44 39.11v2.78h2.75v-2.78Zm2.1 2.4a.34.34 0 0 1-.25-.11l-.49-.62-.46.6a.3.3 0 0 1-.26.13h-.29l.79-1-.77-1h.29a.32.32 0 0 1 .26.11l.46.58.43-.58a.32.32 0 0 1 .26-.11h.29l-.76 1 .8 1ZM60.89 56.26H52.8V51h2.75v2.5h2.58V51l-5.33-1.1v-7.55h8.09v5.26h-2.76V45.1h-2.58v2.52l5.34 1.11Zm1.71-3.96h-.74v-2.77h.74v-3.48h8.16v6.25h-5.33v1.2H68v-.75h2.75v3.51H62.6Zm2.83-3.49v.72H68v-.72ZM77 56.26h-2.5l-2.81-4.73v-5.48h2.76v4.73L75.79 53l1.29-2.18v-4.77h2.75v5.48Zm4.54-3.96h-.74v-2.77h.74v-3.48h8.17v6.25h-5.34v1.2H87v-.75h2.76v3.51h-8.22Zm2.83-3.49v.72H87v-.72Zm9.75 7.45h-2.75v-7.45h-.69v-2.76h8.79v4.87h-2.76v-2.11h-2.59Zm6.32-10.21h2.76v10.21h-2.76zm12.5 10.21h-8.09v-7.45h-.69v-2.76h.69v-3.7h2.76v3.7h2.66v2.76h-2.66v4.69h2.58v-.76h2.75Zm3.73-11.14h-2.76v-2.77h2.76Zm0 11.14h-2.76V46.05h2.76Zm9.75 0h-8.78V46.05h2.75v7.45H123v-7.45h2.76v7.45h.69Zm12.78 0h-2.75v-7.45h-1.7v7.45H132v-7.45h-1.84v7.45h-2.76v-7.45h-.69v-2.76h12.49Z" fill-rule="evenodd"/></svg>