<svg width="24" height="24" viewBox="0 0 24 24" xmlns="http://www.w3.org/2000/svg"><path d="M10.5 1.5L4.5 7.5H0.75C0.335786 7.5 0 7.83579 0 8.25V15.75C0 16.1642 0.335787 16.5 0.75 16.5H4.5L10.5 22.5V1.5Z" fill="white"/><path d="M22.5 12C22.5 7.02944 18.4706 3 13.5 3V1.5C19.299 1.5 24 6.20101 24 12C24 17.799 19.299 22.5 13.5 22.5V21C18.4706 21 22.5 16.9706 22.5 12Z" fill="white"/><path d="M13.5 7.5C15.9853 7.5 18 9.51472 18 12C18 14.4853 15.9853 16.5 13.5 16.5V18C16.8137 18 19.5 15.3137 19.5 12C19.5 8.68629 16.8137 6 13.5 6V7.5Z" fill="white"/></svg>