<svg xmlns="http://www.w3.org/2000/svg" viewBox="0 0 42 45"><path fill-rule="evenodd" d="m33.25,15h4.92c.53,0,1.04.21,1.41.59l1.83,1.83c.38.38.59.88.59,1.41v22.34c0,.53-.21,1.04-.59,1.41l-1.83,1.83c-.38.38-.88.59-1.41.59H3.83c-.53,0-1.04-.21-1.41-.59l-1.83-1.83c-.38-.38-.59-.88-.59-1.41v-22.34c0-.53.21-1.04.59-1.41l1.83-1.83c.38-.38.88-.59,1.41-.59h4.92c.14,0,.25-.11.25-.25v-2.32c0-6.63,5.18-12.33,11.81-12.43s12.19,5.31,12.19,12v2.75c0,.14.11.25.25.25Zm-4.75-.25v-2.44c0-4.11-3.16-7.69-7.27-7.81s-7.73,3.28-7.73,7.5v2.75c0,.14.11.25.25.25h14.5c.14,0,.25-.11.25-.25Zm-11.38,13.13l1.76-1.76c1.17-1.17,3.07-1.17,4.24,0l1.76,1.76c1.17,1.17,1.17,3.07,0,4.24l-1.76,1.76c-1.17,1.17-3.07,1.17-4.24,0l-1.76-1.76c-1.17-1.17-1.17-3.07,0-4.24Z" fill="white"/></svg>