<svg width="24" height="24" viewBox="0 0 24 24" xmlns="http://www.w3.org/2000/svg"><path fill-rule="evenodd" clip-rule="evenodd" d="M16.0937 17.1543C14.3885 18.6166 12.1724 19.5 9.75 19.5C4.36522 19.5 0 15.1348 0 9.75C0 4.36522 4.36522 0 9.75 0C15.1348 0 19.5 4.36522 19.5 9.75C19.5 12.1724 18.6166 14.3885 17.1543 16.0937L23.7803 22.7197C24.0732 23.0126 24.0732 23.4874 23.7803 23.7803C23.4874 24.0732 23.0126 24.0732 22.7197 23.7803L16.0937 17.1543ZM18 9.75C18 14.3063 14.3063 18 9.75 18C5.19365 18 1.5 14.3063 1.5 9.75C1.5 5.19365 5.19365 1.5 9.75 1.5C14.3063 1.5 18 5.19365 18 9.75Z" fill="white"/></svg>