<svg xmlns="http://www.w3.org/2000/svg" viewBox="0 0 487.23 487.23"><path d="M55.323 203.641a38.91 38.91 0 0 0 35.872-23.854c25.017-59.604 83.842-101.61 152.42-101.61 37.797 0 72.449 12.955 100.23 34.442l-21.775 3.371a16.98 16.98 0 0 0-14.232 14.512 16.98 16.98 0 0 0 9.867 17.768l119.746 53.872a17.01 17.01 0 0 0 16.168-1.205 17.02 17.02 0 0 0 7.796-14.208l.621-131.943a16.98 16.98 0 0 0-12.024-16.332 16.99 16.99 0 0 0-19.104 6.837l-16.505 24.805C370.398 26.778 310.1 0 243.615 0 142.806 0 56.133 61.562 19.167 149.06a39.26 39.26 0 0 0 3.429 36.987 39.27 39.27 0 0 0 32.727 17.594m409.312 97.543a39.27 39.27 0 0 0-32.728-17.594 38.91 38.91 0 0 0-35.872 23.854c-25.018 59.604-83.843 101.61-152.42 101.61-37.798 0-72.45-12.955-100.232-34.442l21.776-3.369a16.99 16.99 0 0 0 14.233-14.514 16.985 16.985 0 0 0-9.867-17.768L49.779 285.089a17.01 17.01 0 0 0-16.169 1.205 17.02 17.02 0 0 0-7.795 14.207l-.622 131.943a16.98 16.98 0 0 0 12.024 16.332 16.99 16.99 0 0 0 19.104-6.839l16.505-24.805c44.004 43.32 104.303 70.098 170.788 70.098 100.811 0 187.481-61.561 224.446-149.059a39.25 39.25 0 0 0-3.425-36.987"/></svg>