<svg xmlns="http://www.w3.org/2000/svg" fill="none" viewBox="0 0 192 60"><path fill="#fff" fill-rule="evenodd" d="M40.286 0c.473 0 .857.384.857.857V9.43a.857.857 0 0 1-.857.857H25.714V38.65l25.04-36.42A5.14 5.14 0 0 1 54.99 0h14.438c.473 0 .857.384.857.857v39.429a.857.857 0 0 1-.857.857h-8.572a.857.857 0 0 1-.857-.857v-6H41.571l-3.181 4.628a5.14 5.14 0 0 1-4.238 2.229H16.286a.857.857 0 0 1-.857-.857v-30H.857A.857.857 0 0 1 0 9.429V.857C0 .384.384 0 .857 0zm8.357 24L60 7.48V24z" clip-rule="evenodd"/><path fill="#fff" d="M76.286 0a.857.857 0 0 0-.857.857v39.429c0 .473.383.857.857.857h8.571a.857.857 0 0 0 .857-.857V14.96l16.468 23.953a5.14 5.14 0 0 0 4.238 2.229h9.294a.857.857 0 0 0 .857-.857V.857a.857.857 0 0 0-.857-.857h-8.571a.857.857 0 0 0-.857.857v25.325L89.818 2.229A5.14 5.14 0 0 0 85.58 0zm46.285 0a.857.857 0 0 0-.857.857v39.429c0 .473.384.857.857.857h8.572a.857.857 0 0 0 .857-.857V25.714h7.393l9.074 13.2a5.15 5.15 0 0 0 4.238 2.229h9.337a.43.43 0 0 0 .354-.672l-13.682-19.9 13.682-19.9a.43.43 0 0 0-.354-.671h-9.337a5.14 5.14 0 0 0-4.238 2.23l-9.074 13.199H132V.857a.857.857 0 0 0-.857-.857zm44.572 0a.857.857 0 0 0-.857.857v39.429c0 .473.383.857.857.857h8.571a.857.857 0 0 0 .857-.857V.857a.857.857 0 0 0-.857-.857z"/><path fill="#fff" fill-rule="evenodd" d="M54 46.286a5.143 5.143 0 0 0-5.143 5.143v3.428a5.143 5.143 0 1 0 10.286 0V51.43A5.143 5.143 0 0 0 54 46.286m2.571 8.571V51.43a2.571 2.571 0 1 0-5.142 0v3.428a2.571 2.571 0 1 0 5.142 0" clip-rule="evenodd"/><path fill="#fff" d="M102.857 46.714c0-.236.192-.428.429-.428H105c.237 0 .429.192.429.428v12.857A.43.43 0 0 1 105 60h-1.714a.43.43 0 0 1-.429-.429zM87 46.286a.43.43 0 0 0-.429.428v12.857c0 .237.192.429.429.429h7.714a.43.43 0 0 0 .429-.429v-1.714a.43.43 0 0 0-.429-.428h-5.571V46.714a.43.43 0 0 0-.429-.428zm46.286 0a.43.43 0 0 0-.429.428v12.857c0 .237.192.429.429.429H141a.43.43 0 0 0 .429-.429v-1.714a.43.43 0 0 0-.429-.428h-5.571v-3H141a.43.43 0 0 0 .429-.429v-1.714a.43.43 0 0 0-.429-.429h-5.571v-3H141a.43.43 0 0 0 .429-.428v-1.715a.43.43 0 0 0-.429-.428zM75.85 60h-.179a.43.43 0 0 1-.367-.208l-5.018-8.364v8.143a.43.43 0 0 1-.429.429h-1.714a.43.43 0 0 1-.429-.429V46.714c0-.236.192-.428.429-.428h1.9c.15 0 .29.079.368.208l5.018 8.363v-8.143c0-.236.191-.428.428-.428h1.714c.237 0 .429.192.429.428v12.857a.43.43 0 0 1-.429.429zm46.285 0h-.178a.43.43 0 0 1-.368-.208l-5.018-8.364v8.143a.43.43 0 0 1-.428.429h-1.714a.43.43 0 0 1-.429-.429V46.714c0-.236.192-.428.429-.428h1.9c.15 0 .29.079.367.208l5.018 8.363v-8.143c0-.236.192-.428.429-.428h1.714c.237 0 .429.192.429.428v12.857a.43.43 0 0 1-.429.429zM185.028.316a1.65 1.65 0 0 1 1.944 0l4.346 3.158c.58.42.822 1.167.601 1.848l-1.66 5.11a1.65 1.65 0 0 1-1.573 1.142h-5.372a1.65 1.65 0 0 1-1.573-1.142l-1.66-5.11a1.65 1.65 0 0 1 .601-1.848z"/></svg>