<svg viewBox="0 0 66 46" xmlns="http://www.w3.org/2000/svg"><path fill-rule="evenodd" clip-rule="evenodd" d="M32.5 39c8.284 0 15-6.716 15-15 0-8.284-6.716-15-15-15-8.284 0-15 6.716-15 15 0 8.284 6.716 15 15 15Zm0 4c10.493 0 19-8.507 19-19s-8.507-19-19-19-19 8.507-19 19 8.507 19 19 19Z" fill="white"/><path d="M30.5 3a1 1 0 0 1 1-1h2a1 1 0 0 1 1 1v7a1 1 0 0 1-1 1h-2a1 1 0 0 1-1-1V3ZM30.5 37a1 1 0 0 1 1-1h2a1 1 0 0 1 1 1v7a1 1 0 0 1-1 1h-2a1 1 0 0 1-1-1v-7ZM53 21.5a1 1 0 0 1 1 1v2a1 1 0 0 1-1 1h-7a1 1 0 0 1-1-1v-2a1 1 0 0 1 1-1h7ZM19 21.5a1 1 0 0 1 1 1v2a1 1 0 0 1-1 1h-7a1 1 0 0 1-1-1v-2a1 1 0 0 1 1-1h7ZM30.5 22h11v-3c-.167-.667-.9-2-2.5-2h-4.5c-1.333.167-4 .8-4 2v1h-8v1h8v1ZM24.5 31h17c.667-.667 2-2.2 2-3v-2.5c-.333-.833-1.4-2.5-3-2.5h-11l-1 1h-4c-1.333.333-4 1.2-4 2v2c.833 1 2.8 3 4 3Z" fill="white"/></svg>