<svg viewBox="0 0 66 46" xmlns="http://www.w3.org/2000/svg"><path fill-rule="evenodd" clip-rule="evenodd" d="M31.225.038c.087-.025.18-.038.275-.038h1v9h-1a1 1 0 0 1-1-1v-.868C23.983 8 18.79 13.053 17.707 19.5H19a1 1 0 0 1 1 1v2a1 1 0 0 1-1 1h-1.426c.687 6.919 6.075 12.455 12.926 13.368V35a1 1 0 0 1 1-1h1v9h-1a1 1 0 0 1-1-1v-1.104c-9.062-.948-16.229-8.266-16.942-17.396H12a1 1 0 0 1-1-1v-2a1 1 0 0 1 1-1h1.663C14.801 10.84 21.771 4.017 30.5 3.104V.97a.924.924 0 0 1 .015-.144.995.995 0 0 1 .412-.645.995.995 0 0 1 .298-.143ZM30.5 19h-8v-1h8v-1c0-.716.95-1.231 2-1.565V20h-2v-1Zm2 2v8h-8c-1.2 0-3.166-2-4-3v-2c0-.8 2.666-1.666 4-2h4l1-1h3Zm13.196 14c3-.834 9-2.9 9-4.5 0-2-1-4.5-5.5-4.5l-1.5 1-12-4.286V35h10Zm-10-14.58 11.5 4.08 1-1.5 11 4.5 1-2-11.5-5V18l-11-7h-2v9.42Z" fill="white"/></svg>