<svg width="24" height="24" viewBox="0 0 24 24" xmlns="http://www.w3.org/2000/svg"><path d="M4.5 5.99969L10.5 -0.000305176H9C6.51472 -0.000305176 4.5 2.01441 4.5 4.49969V5.99969Z" fill="white"/><path d="M4.50001 8.99994L7.50001 11.9999C7.50001 9.11864 8.6446 6.35535 10.682 4.31796L15 -6.10352e-05V4.49994L20.6628 10.1627C21.8577 11.3576 22.6493 12.896 22.9272 14.5628C23.5535 18.3211 21.4785 22.0085 17.9409 23.4236L16.5 23.9999V21.4705C16.5 18.2879 15.2357 15.2357 12.9853 12.9852L12 11.9999V16.4999L10.1718 17.7187C8.50261 18.8315 7.50001 20.7049 7.50001 22.711V23.9999L6.05915 23.4236C2.52152 22.0085 0.446472 18.3211 1.07286 14.5628C1.35066 12.896 2.14235 11.3576 3.33725 10.1627L4.50001 8.99994Z" fill="white"/></svg>