<svg width="24" height="24" viewBox="0 0 24 24" xmlns="http://www.w3.org/2000/svg"><path d="M11.225 20.2585L0 24.0002L10.5 18.0002L8.26255 12.4066C7.80286 11.2573 8.09616 9.94377 9.00103 9.09923L17.6649 1.01295C18.3622 0.362139 19.2849 0.000183105 20.2388 0.000183105C22.3098 0.000183105 24 1.67912 24 3.75018C24 5.1351 23.2367 6.40728 22.0147 7.05901L12.75 12.0002L13.2614 17.114C13.4009 18.5093 12.5553 19.8151 11.225 20.2585Z" fill="white"/><path d="M9.08275 4.10374L3.75 9.75019L6.79541 15.2319C7.18829 15.9391 6.94961 16.8304 6.25592 17.2466L0 21.0002L4.5 16.5002L1.06623 11.3495C0.416386 10.3748 0.393413 9.11089 1.00741 8.11314L5.29814 1.14071C5.73431 0.431936 6.50695 0.000183105 7.33918 0.000183105C8.33817 0.000183105 9.23701 0.632223 9.58778 1.56761C9.91397 2.43743 9.7206 3.42837 9.08275 4.10374Z" fill="white"/><path d="M18.75 17.2502L22.9043 15.4698C23.569 15.1849 24 14.5229 24 13.7997C24 12.8128 23.2 12.0002 22.213 12.0002C21.9094 12.0002 21.6107 12.0776 21.3452 12.2251L17.3673 14.435C16.0225 15.1821 15.4608 16.8253 16.0667 18.2393L17.25 21.0002L9 24.0002L18.529 22.7297C19.4361 22.6087 20.0244 21.7107 19.773 20.8307L18.75 17.2502Z" fill="white"/></svg>