<svg width="24" height="24" viewBox="0 0 24 24" xmlns="http://www.w3.org/2000/svg"><path d="M13.5 0.0928406C13.0086 0.031565 12.508 0 12 0C6.40848 0 1.71018 3.82432 0.378052 9H2.80494C3.22876 9 3.60156 8.73038 3.77393 8.3432C4.98029 5.63353 7.48619 3.63006 10.5 3.12444V7.67157C10.5 8.20201 10.7107 8.71071 11.0858 9.08579L12 10L12.9142 9.08579C13.2893 8.71071 13.5 8.20201 13.5 7.67157V0.0928406Z" fill="white"/><path d="M15.6568 3.77393C18.3665 4.98029 20.3699 7.48619 20.8756 10.5H16.3284C15.798 10.5 15.2893 10.7107 14.9142 11.0858L14 12L14.9142 12.9142C15.2893 13.2893 15.798 13.5 16.3284 13.5H23.9072C23.9684 13.0086 24 12.508 24 12C24 6.40848 20.1757 1.71018 15 0.378052V2.80494C15 3.22876 15.2696 3.60156 15.6568 3.77393Z" fill="white"/><path d="M20.2261 15.6568C20.3984 15.2696 20.7712 15 21.1951 15H23.6219C22.2898 20.1757 17.5915 24 12 24C11.492 24 10.9914 23.9684 10.5 23.9072V16.3284C10.5 15.798 10.7107 15.2893 11.0858 14.9142L12 14L12.9142 14.9142C13.2893 15.2893 13.5 15.798 13.5 16.3284V20.8756C16.5138 20.3699 19.0197 18.3665 20.2261 15.6568Z" fill="white"/><path d="M0.0928406 10.5H7.67157C8.20201 10.5 8.71071 10.7107 9.08579 11.0858L10 12L9.08579 12.9142C8.71071 13.2893 8.20201 13.5 7.67157 13.5H3.12444C3.63006 16.5138 5.63353 19.0197 8.3432 20.2261C8.73038 20.3984 9 20.7712 9 21.1951V23.6219C3.82432 22.2898 0 17.5915 0 12C0 11.492 0.031565 10.9914 0.0928406 10.5Z" fill="white"/></svg>