<svg xmlns="http://www.w3.org/2000/svg" xml:space="preserve" fill-rule="evenodd" stroke-linejoin="round" stroke-miterlimit="2" clip-rule="evenodd" viewBox="0 0 24 24"><path fill-rule="nonzero" d="M10.75 21.273a1.651 1.621 0 0 0-.453 1.143c.006.412.167.82.485 1.131l.024.023a1.6 1.6 0 0 0 2.22-.033c3.514-3.45 6.99-6.955 10.482-10.43a.3.3 0 0 0 .038-.032A1.661 1.631 0 0 0 24 11.93a1.655 1.625 0 0 0-.488-1.133l-.053-.05C19.983 7.318 16.51 3.88 13.025.46A1.584 1.555 0 0 0 11.922 0a1.6 1.6 0 0 0-1.116.432l-.03.029a1.655 1.625 0 0 0-.48 1.125c-.005.41.146.824.454 1.143l9.396 9.233zm-10.3-.39A1.645 1.615 0 0 0 0 22.022c.006.412.167.82.485 1.13l.024.024a1.605 1.605 0 0 0 2.22-.031c3.441-3.378 6.995-6.698 10.48-10.034l.042-.034a1.661 1.631 0 0 0 .454-1.146 1.655 1.625 0 0 0-.487-1.133C9.738 7.487 6.24 4.188 2.752.88L2.728.856a1.584 1.555 0 0 0-1.102-.46A1.6 1.6 0 0 0 .509.827l-.03.03A1.66 1.63 0 0 0 0 1.98c-.006.41.145.824.454 1.142L9.84 11.96z"/></svg>