<svg width="24" height="24" viewBox="0 0 24 24" xmlns="http://www.w3.org/2000/svg"><path d="M14.25 17.625C14.25 18.2463 13.7463 18.75 13.125 18.75H10.875C10.2537 18.75 9.75 18.2463 9.75 17.625C9.75 17.0037 10.2537 16.5 10.875 16.5H13.125C13.7463 16.5 14.25 17.0037 14.25 17.625Z" fill="white"/><path fill-rule="evenodd" clip-rule="evenodd" d="M12 24C18.6274 24 24 18.6274 24 12C24 5.37258 18.6274 0 12 0C5.37258 0 0 5.37258 0 12C0 18.6274 5.37258 24 12 24ZM21 12C21 16.9706 16.9706 21 12 21C7.02944 21 3 16.9706 3 12H21ZM6.75 6.00073C7.04263 6.00073 7.32222 6.0566 7.57867 6.15825C7.08729 6.40458 6.75 6.9129 6.75 7.5C6.75 8.32843 7.42157 9 8.25 9H9.71655C9.72764 9.00049 9.73879 9.00073 9.75 9.00073C10.1642 9.00073 10.5 8.66495 10.5 8.25073C10.5 6.17966 8.82107 4.50073 6.75 4.50073C4.67893 4.50073 3 6.17966 3 8.25073C3 8.66495 3.33579 9.00073 3.75 9.00073C4.16421 9.00073 4.5 8.66495 4.5 8.25073C4.5 7.00809 5.50736 6.00073 6.75 6.00073ZM18.0787 6.15825C17.8222 6.0566 17.5426 6.00073 17.25 6.00073C16.0074 6.00073 15 7.00809 15 8.25073C15 8.66495 14.6642 9.00073 14.25 9.00073C13.8358 9.00073 13.5 8.66495 13.5 8.25073C13.5 6.17966 15.1789 4.50073 17.25 4.50073C19.3211 4.50073 21 6.17966 21 8.25073C21 8.66495 20.6642 9.00073 20.25 9.00073C20.2388 9.00073 20.2276 9.00049 20.2166 9H18.75C17.9216 9 17.25 8.32843 17.25 7.5C17.25 6.9129 17.5873 6.40458 18.0787 6.15825Z" fill="white"/></svg>