<svg width="16" height="16" viewBox="0 0 16 16" xmlns="http://www.w3.org/2000/svg"><path fill-rule="evenodd" clip-rule="evenodd" d="M15.6777 9.35533L14.6667 7.33333H14.0001V8C14.0001 9.47276 12.8062 10.6667 11.3334 10.6667H10.6667L9.3334 9.33333V8.66667L14.6667 6V4C14.6667 2 11.3334 0 8.00006 0C4.66673 0 1.3334 2 1.3334 4V6L6.66673 8.66667V9.33333L5.3334 10.6667H4.66673C3.19397 10.6667 2.00006 9.47276 2.00006 8V7.33333H1.3334L0.322397 9.35533C0.129903 9.74032 0.205357 10.2053 0.509717 10.5097L1.56072 11.5607C1.84203 11.842 2.22356 12 2.62139 12H4.66673V13.5858C4.66673 13.851 4.77209 14.1054 4.95962 14.2929L6.00006 15.3333L8.00006 16L10.0001 15.3333L11.0405 14.2929C11.228 14.1054 11.3334 13.851 11.3334 13.5858V12H13.3787C13.7766 12 14.1581 11.842 14.4394 11.5607L15.4904 10.5097C15.7948 10.2053 15.8702 9.74032 15.6777 9.35533ZM7.00006 13L6.00006 12L8.00006 10L10.0001 12L9.00006 13L8.00006 12L7.00006 13Z" fill="white"/></svg>