<svg xmlns="http://www.w3.org/2000/svg" viewBox="0 0 24 24"><path d="M19.72,0H4.28A2.29,2.29,0,0,0,2,2.3V23.72a.27.27,0,0,0,.43.22l9.41-6.53a.27.27,0,0,1,.32,0l9.41,6.53a.27.27,0,0,0,.43-.22V2.3A2.29,2.29,0,0,0,19.72,0ZM15.05,13.86,12.15,12a.27.27,0,0,0-.3,0L9,13.86a.28.28,0,0,1-.42-.32l.9-3a.3.3,0,0,0-.09-.3L7,8.36a.27.27,0,0,1,.17-.49h3a.27.27,0,0,0,.26-.19l1.23-3.53a.27.27,0,0,1,.52,0l1.23,3.53a.27.27,0,0,0,.26.19h3a.27.27,0,0,1,.17.49l-2.3,1.87a.3.3,0,0,0-.09.3l.9,3A.28.28,0,0,1,15.05,13.86Z" fill="white"/></svg>