<svg xmlns="http://www.w3.org/2000/svg" viewBox="0 0 512 512"><path d="M425.53,49.12l-81-34.31a272.57,272.57,0,0,0-177,0l-81,34.31c-26.19,8.94-43.86,27.64-43.86,56.15V248.71c0,165.77,196.26,257.32,204.67,261.13h0a20.78,20.78,0,0,0,15.39.77c8.43-2.89,206.59-72.93,206.59-261.9V105.27C469.34,76.79,451.66,58.09,425.53,49.12ZM123,211.74a60.47,60.47,0,0,1,0-78.34c8.58-9.79,23.56-20.16,47.75-20.16s39.17,10.37,47.81,20.16a60.47,60.47,0,0,1,0,78.34c-8.64,9.79-23.62,20.16-47.81,20.16S131.58,221.53,123,211.74ZM230.36,314.26c-3.46,7.2-7.2,8.07-11.52,8.07h-23c-4,0-5.44-4.61-4-8.07l89-189.21c3.45-7.2,7.2-8.06,11.52-8.06h23c4,0,5.44,4.6,4,8.06Zm158.69-12.09c-8.64,9.79-23.6,20.16-47.8,20.16S302.08,312,293.44,302.17a60.47,60.47,0,0,1,0-78.34c8.64-9.83,23.62-20.11,47.81-20.11s39.16,10.37,47.8,20.16a60.41,60.41,0,0,1,0,78.29ZM192.64,172.57c0,13.82-7.78,25.63-21.89,25.63s-21.89-11.81-21.89-25.63,7.78-25.63,21.89-25.63S192.64,158.75,192.64,172.57Zm170.49,90.48c0,13.82-7.77,25.63-21.88,25.63S319.36,276.82,319.36,263s7.77-25.63,21.89-25.63,21.88,11.81,21.88,25.63Z" fill="white"/></svg>