<svg width="50" height="25" viewBox="0 0 50 25" xmlns="http://www.w3.org/2000/svg"><path fill-rule="evenodd" clip-rule="evenodd" d="M32.564 11.396C31.7849 11.9238 30.8784 12.2266 29.9111 12.2266C27.0015 12.2266 24.6428 9.48975 24.6428 6.11328C24.6428 2.73682 25.4172 0 29.9111 0C30.9998 0 31.8701 0.160645 32.564 0.452148C30.3933 1.36377 29.9485 3.55469 29.9485 6.11328C29.9485 8.36719 30.9995 10.3359 32.564 11.396ZM27.4248 14.2256C26.4563 13.7891 25.7646 13.2812 25.7646 13.2812C20.0764 14.2622 20.062 15.2573 19.9929 20.0601V20.0732C19.988 20.4053 19.9829 20.7544 19.9756 21.123C19.9697 21.415 19.9658 21.5342 19.9636 21.5693C19.9622 21.5908 19.9612 21.5815 19.9604 21.561L19.9612 22.1787C19.9612 22.1787 20.9358 24.0557 25.8994 24.7476C25.7251 24.272 25.3665 23.1992 25.2668 22.1787L25.2661 21.561C25.2664 21.5728 25.2668 21.5806 25.2676 21.5815C25.2688 21.583 25.2705 21.5576 25.2729 21.4785L25.2769 21.3379L25.2812 21.123L25.292 20.5112L25.2986 20.0732V20.0601C25.3477 16.644 25.3694 15.1538 27.4248 14.2256Z" fill="white"/><path d="M39.5954 12.2266C42.5049 12.2266 44.8636 9.48964 44.8636 6.11336C44.8636 2.737 44.0892 0 39.5954 0C35.1017 0 34.3271 2.737 34.3271 6.11336C34.3271 9.48964 36.6859 12.2266 39.5954 12.2266Z" fill="white"/><path d="M49.5344 21.3141C49.4368 15.4325 49.8946 14.3421 43.742 13.2812C43.742 13.2812 41.6141 14.8437 39.5954 14.8437C37.5768 14.8437 35.4489 13.2812 35.4489 13.2812C29.3634 14.3305 29.772 15.3961 29.6599 21.123C29.6507 21.5906 29.6464 21.6152 29.6448 21.5609C29.6451 21.6626 29.6456 21.8508 29.6456 22.1789C29.6456 22.1789 31.1104 25 39.5954 25C48.0802 25 49.5451 22.1789 49.5451 22.1789C49.5451 21.9681 49.5453 21.8215 49.5455 21.7218C49.5439 21.7554 49.5406 21.6903 49.5344 21.3141Z" fill="white"/><path d="M7.54364 5.55566H10.8797V20.8334H7.54364V5.55566Z" fill="white"/><path d="M17.9687 11.7395V14.6496H0.45459V11.7395H17.9687Z" fill="white"/></svg>