<svg xmlns="http://www.w3.org/2000/svg" viewBox="0 0 24 24"><g fill-rule="evenodd" clip-rule="evenodd"><path d="M9.976 13.334a2.111 2.111 0 1 1 4.222 0 2.111 2.111 0 0 1-4.222 0m2.11-4.111a4.111 4.111 0 1 0 0 8.222 4.111 4.111 0 0 0 0-8.222m6.223 2.332a1.333 1.333 0 1 0 0-2.666 1.333 1.333 0 0 0 0 2.666"/><path d="M10.22 3a3.69 3.69 0 0 0-3.53 2.667H4.888c-2.064 0-3.667 1.603-3.667 3.666v8C1.22 19.397 2.823 21 4.887 21h14.222c2.063 0 3.667-1.603 3.667-3.667V9.36c.106-2.125-1.648-3.693-3.578-3.693H17.39A3.666 3.666 0 0 0 13.864 3zm0 2c-.892 0-1.667.73-1.667 1.667v1H4.887c-.96 0-1.667.708-1.667 1.666v8c0 .96.708 1.667 1.667 1.667h14.222c.959 0 1.667-.708 1.667-1.667V9.304l.001-.03c.052-.88-.675-1.607-1.58-1.607h-3.666v-1c0-.892-.73-1.667-1.667-1.667z"/></g></svg>