<svg xmlns="http://www.w3.org/2000/svg" xml:space="preserve" fill-rule="evenodd" stroke-linejoin="round" stroke-miterlimit="2" clip-rule="evenodd" viewBox="0 0 24 24"><path d="M12 20.651a8.372 8.372 0 1 0 0-16.744 8.372 8.372 0 0 0 0 16.744m0 2.233c5.856 0 10.604-4.748 10.604-10.605S17.856 1.675 12 1.675 1.395 6.423 1.395 12.279 6.143 22.884 12 22.884"/><path fill-rule="nonzero" d="M10.883.558A.56.56 0 0 1 11.441 0h1.117a.56.56 0 0 1 .558.558v3.907a.56.56 0 0 1-.558.559H11.44a.56.56 0 0 1-.558-.559zm0 18.977a.56.56 0 0 1 .558-.558h1.117a.56.56 0 0 1 .558.558v3.907a.56.56 0 0 1-.558.558H11.44a.56.56 0 0 1-.558-.558zm12.558-8.651a.56.56 0 0 1 .559.558v1.116a.56.56 0 0 1-.559.559h-3.907a.56.56 0 0 1-.558-.559v-1.116a.56.56 0 0 1 .558-.558zm-18.976 0a.56.56 0 0 1 .558.558v1.116a.56.56 0 0 1-.558.559H.558A.56.56 0 0 1 0 12.558v-1.116a.56.56 0 0 1 .558-.558zm6.418.28h6.14V9.488c-.093-.373-.503-1.117-1.396-1.117h-2.511c-.744.094-2.233.447-2.233 1.117v.558H6.418v.558h4.465zm-3.349 5.022h9.489c.372-.372 1.116-1.228 1.116-1.674v-1.395c-.186-.465-.781-1.396-1.674-1.396h-6.14l-.558.558H7.534c-.744.186-2.232.67-2.232 1.117v1.116c.465.558 1.563 1.674 2.232 1.674"/></svg>