<svg xmlns="http://www.w3.org/2000/svg" xml:space="preserve" fill-rule="evenodd" stroke-linejoin="round" stroke-miterlimit="2" clip-rule="evenodd" viewBox="0 0 24 24"><path d="M6 2v2a2.003 2.003 0 0 1-2 2H2a2.003 2.003 0 0 1-2-2V2a2.003 2.003 0 0 1 2-2h2a2.003 2.003 0 0 1 2 2m0 9v2a2.003 2.003 0 0 1-2 2H2a2.003 2.003 0 0 1-2-2v-2a2.003 2.003 0 0 1 2-2h2a2.003 2.003 0 0 1 2 2m0 9v2a2.003 2.003 0 0 1-2 2H2a2.003 2.003 0 0 1-2-2v-2a2.003 2.003 0 0 1 2-2h2a2.003 2.003 0 0 1 2 2m9-18v2a2.003 2.003 0 0 1-2 2h-2a2.003 2.003 0 0 1-2-2V2a2.003 2.003 0 0 1 2-2h2a2.003 2.003 0 0 1 2 2m0 9v2a2.003 2.003 0 0 1-2 2h-2a2.003 2.003 0 0 1-2-2v-2a2.003 2.003 0 0 1 2-2h2a2.003 2.003 0 0 1 2 2m0 9v2a2.003 2.003 0 0 1-2 2h-2a2.003 2.003 0 0 1-2-2v-2a2.003 2.003 0 0 1 2-2h2a2.003 2.003 0 0 1 2 2m9-18v2a2.003 2.003 0 0 1-2 2h-2a2.003 2.003 0 0 1-2-2V2a2.003 2.003 0 0 1 2-2h2a2.003 2.003 0 0 1 2 2m0 9v2a2.003 2.003 0 0 1-2 2h-2a2.003 2.003 0 0 1-2-2v-2a2.003 2.003 0 0 1 2-2h2a2.003 2.003 0 0 1 2 2m0 9v2a2.003 2.003 0 0 1-2 2h-2a2.003 2.003 0 0 1-2-2v-2a2.003 2.003 0 0 1 2-2h2a2.003 2.003 0 0 1 2 2"/></svg>