<svg xmlns="http://www.w3.org/2000/svg" xml:space="preserve" fill-rule="evenodd" stroke-linejoin="round" stroke-miterlimit="2" clip-rule="evenodd" viewBox="0 0 24 24"><path d="M9.867 1.53A.5.5 0 0 1 10 1.51h.488V5.9H10a.49.49 0 0 1-.488-.487V4.99a7.32 7.32 0 0 0-6.24 6.034h.63a.49.49 0 0 1 .488.488v.975a.49.49 0 0 1-.488.488h-.696a7.32 7.32 0 0 0 6.306 6.522v-.912a.49.49 0 0 1 .488-.487h.488v4.39H10A.49.49 0 0 1 9.513 22v-.538a9.27 9.27 0 0 1-8.265-8.487h-.76A.49.49 0 0 1 0 12.487v-.975a.49.49 0 0 1 .488-.488H1.3a9.27 9.27 0 0 1 8.214-7.999v-1.04a.485.485 0 0 1 .354-.455m-.354 9.25H5.61v-.488h3.903v-.488c0-.349.464-.6.976-.763v2.227h-.976zm.976.976v3.902H6.586c-.585 0-1.544-.975-1.951-1.463v-.976c0-.39 1.3-.813 1.951-.976h1.951l.488-.487zm6.437 6.83c1.464-.407 4.39-1.415 4.39-2.196 0-.976-.487-2.195-2.682-2.195l-.732.488-5.854-2.091v5.993zm-4.878-7.113 5.61 1.99.488-.732 5.366 2.196.488-.976-5.61-2.44v-1.219l-5.366-3.415h-.976z"/></svg>