<svg xmlns="http://www.w3.org/2000/svg" viewBox="0 0 16 16"><path fill-rule="evenodd" d="m15.678 9.355-1.011-2.022H14V8a2.667 2.667 0 0 1-2.667 2.667h-.666L9.333 9.333v-.666L14.667 6V4c0-2-3.334-4-6.667-4S1.333 2 1.333 4v2l5.334 2.667v.666l-1.334 1.334h-.666A2.667 2.667 0 0 1 2 8v-.667h-.667L.323 9.355A1 1 0 0 0 .51 10.51l1.05 1.05a1.5 1.5 0 0 0 1.061.44h2.046v1.586a1 1 0 0 0 .293.707L6 15.333 8 16l2-.667 1.04-1.04a1 1 0 0 0 .293-.707V12h2.046a1.5 1.5 0 0 0 1.06-.44l1.051-1.05a1 1 0 0 0 .188-1.155M7 13l-1-1 2-2 2 2-1 1-1-1z" clip-rule="evenodd"/></svg>