<svg xmlns="http://www.w3.org/2000/svg" xml:space="preserve" fill-rule="evenodd" stroke-linejoin="round" stroke-miterlimit="2" clip-rule="evenodd" viewBox="0 0 24 24"><path fill-rule="nonzero" d="M17.579 19.75H7.172c-1.063 0-1.476-1.476-1.55-2.214V15.32c0-.885 1.181-1.254 1.772-1.328h4.87l6.2 2.214.665-.443c1.993 0 2.436 1.107 2.436 1.993 0 .709-2.657 1.624-3.986 1.993m.664-4.65-6.864-2.436v-1.107l1.772-2.435h.885l4.872 3.1v1.107L24 15.543l-.443.885-4.87-1.992zm-7.307-5.093c.178 1.063-.516 1.92-.885 2.214 1.107-3.764-2.436-3.542-3.764-4.65-1.063-.885-.738-2.582-.443-3.32 0 .811.31 2.48 1.55 2.656 1.55.222 3.321 1.772 3.542 3.1m-7.085-.443c2.834.178 3.838 1.846 3.986 2.657-4.207-2.878-4.65-.22-6.643-1.992C-.4 8.812-.061 6.39.308 5.357c0 1.329.709 4.03 3.543 4.207"/></svg>