<svg xmlns="http://www.w3.org/2000/svg" viewBox="0 0 16 16"><path fill-rule="evenodd" d="M8.295.215a.5.5 0 0 0-.59 0L6.032 1.436a.5.5 0 0 1-.295.097l-2.073-.004a.5.5 0 0 0-.477.346L2.55 3.847a.5.5 0 0 1-.182.252L.687 5.314a.5.5 0 0 0-.182.56l.645 1.97a.5.5 0 0 1 0 .311l-.645 1.97a.5.5 0 0 0 .182.561l1.68 1.215a.5.5 0 0 1 .182.252l.637 1.972a.5.5 0 0 0 .477.346l2.073-.004a.5.5 0 0 1 .295.097l1.675 1.221a.5.5 0 0 0 .589 0l1.675-1.221a.5.5 0 0 1 .295-.097l2.073.004a.5.5 0 0 0 .477-.346l.636-1.972a.5.5 0 0 1 .183-.252l1.68-1.215a.5.5 0 0 0 .181-.56l-.644-1.97a.5.5 0 0 1 0-.311l.644-1.97a.5.5 0 0 0-.182-.561L13.634 4.1a.5.5 0 0 1-.183-.252l-.636-1.972a.5.5 0 0 0-.477-.346l-2.073.004a.5.5 0 0 1-.295-.097zm1.277 5.622L8 1 6.43 5.837H1.343l4.114 2.99-1.571 4.836L8 10.673l4.115 2.99-1.572-4.837 4.115-2.99z" clip-rule="evenodd"/></svg>