<svg xmlns="http://www.w3.org/2000/svg" xml:space="preserve" fill-rule="evenodd" stroke-linejoin="round" stroke-miterlimit="2" clip-rule="evenodd" viewBox="0 0 24 24"><g fill-rule="nonzero"><path fill="#abe232" d="M12 0v16.235a837 837 0 0 0-7.953-2.776q0-.047-.047-.047L0 12A2166 2166 0 0 1 12 0"/><path fill="#00da7f" d="M12 0a2166 2166 0 0 1 12 12 1918 1918 0 0 1-12 4.235zM0 12l4 1.412q.047 0 .047.047A837 837 0 0 1 12 16.235V24A2166 2166 0 0 1 0 12"/><path fill="#00b99f" d="M24 12a2166 2166 0 0 1-12 12v-7.765A1918 1918 0 0 0 24 12"/></g></svg>