<svg xmlns="http://www.w3.org/2000/svg" viewBox="0 0 512 512"><path d="m474.95,40.5H37.17C16.7,40.5.11,57.09.11,77.55v221.48c0,20.46,16.59,37.05,37.06,37.05h136.06v127.67c0,7.78,5.99,11.56,9.42,5.97,14.82-24.14,38.91-56.39,75.36-83.83,48.3-36.37,94.64-46.49,119.41-49.81h97.53c20.46,0,37.05-16.59,37.05-37.05V77.55c0-20.46-16.59-37.05-37.05-37.05Zm-218.45,112.5c19.61,0,35.5,15.89,35.5,35.5s-15.89,35.5-35.5,35.5-35.5-15.89-35.5-35.5,15.89-35.5,35.5-35.5Zm-134,71c-19.61,0-35.5-15.89-35.5-35.5s15.89-35.5,35.5-35.5,35.5,15.89,35.5,35.5-15.89,35.5-35.5,35.5Zm268,0c-19.61,0-35.5-15.89-35.5-35.5s15.89-35.5,35.5-35.5,35.5,15.89,35.5,35.5-15.89,35.5-35.5,35.5Z" fill="white"/></svg>