<svg xmlns="http://www.w3.org/2000/svg" viewBox="0 0 512 512"><path d="M332.08,75.75A76.08,76.08,0,1,1,256-.33,76.08,76.08,0,0,1,332.08,75.75ZM100.33,92.14a76.08,76.08,0,1,0,76.08,76.08A76.08,76.08,0,0,0,100.33,92.14Zm0,176.74A76.08,76.08,0,1,0,176.41,345,76.08,76.08,0,0,0,100.33,268.88ZM411.67,92.14a76.08,76.08,0,1,0,76.08,76.08A76.08,76.08,0,0,0,411.67,92.14Zm0,176.74A76.08,76.08,0,1,0,487.75,345,76.08,76.08,0,0,0,411.67,268.88ZM256,360.17a76.08,76.08,0,1,0,76.08,76.08A76.08,76.08,0,0,0,256,360.17Z" fill="white"/></svg>