<svg xmlns="http://www.w3.org/2000/svg" viewBox="0 0 512 512"><path d="M444.38,0H67.62a28,28,0,0,0-28,28V484a28,28,0,0,0,28,28H303a40,40,0,0,0,37.44-25.88c9.26-24.54,18.67-49,29.66-72.85h0a10.82,10.82,0,0,1,9.81-6.27h52.47a40,40,0,0,0,40-40V28A28,28,0,0,0,444.38,0ZM255,313.5a6,6,0,0,1-6,6H129a6,6,0,0,1-6-6V282a6,6,0,0,1,6-6H249a6,6,0,0,1,6,6Zm134-72a6,6,0,0,1-6,6H129a6,6,0,0,1-6-6V210a6,6,0,0,1,6-6H383a6,6,0,0,1,6,6Zm0-72a6,6,0,0,1-6,6H129a6,6,0,0,1-6-6V138a6,6,0,0,1,6-6H383a6,6,0,0,1,6,6Z" fill="white"/></svg>