<svg xmlns="http://www.w3.org/2000/svg" xmlns:xlink="http://www.w3.org/1999/xlink" viewBox="0 0 512 512"><defs><radialGradient id="a" cx="98.66" cy="329.41" r="42.74" gradientUnits="userSpaceOnUse"><stop offset="0" stop-color="#f7c523" stop-opacity=".8"/><stop offset=".41" stop-color="#f49125" stop-opacity=".9"/><stop offset=".66" stop-color="#db5923" stop-opacity=".85"/><stop offset=".88" stop-color="#c83122" stop-opacity=".81"/><stop offset="1" stop-color="#c12121" stop-opacity=".8"/></radialGradient><radialGradient xlink:href="#a" id="i" cx="413.33" cy="329.41" r="42.74"/><radialGradient xlink:href="#a" id="j" cx="256.05" cy="447.66" r="42.74"/><radialGradient id="k" cx="162.63" cy="110.81" r="42.74" gradientTransform="rotate(-11.04 162.71 110.871)" gradientUnits="userSpaceOnUse"><stop offset="0" stop-color="#f49125" stop-opacity=".9"/><stop offset=".1" stop-color="#ef8625" stop-opacity=".89"/><stop offset=".27" stop-color="#e26924" stop-opacity=".86"/><stop offset=".49" stop-color="#cc3a22" stop-opacity=".82"/><stop offset=".59" stop-color="#c12121" stop-opacity=".8"/></radialGradient><radialGradient id="l" cx="349.59" cy="110.81" r="42.78" gradientTransform="rotate(4.54 349.791 110.826)" gradientUnits="userSpaceOnUse"><stop offset=".41" stop-color="#c12121" stop-opacity=".8"/><stop offset=".51" stop-color="#cc3a22" stop-opacity=".82"/><stop offset=".73" stop-color="#e26924" stop-opacity=".86"/><stop offset=".9" stop-color="#ef8625" stop-opacity=".89"/><stop offset="1" stop-color="#f49125" stop-opacity=".9"/></radialGradient><radialGradient id="b" cx="256" cy="256.56" r="248.36" gradientUnits="userSpaceOnUse"><stop offset="0" stop-color="#f25627" stop-opacity=".4"/><stop offset=".08" stop-color="#f36726" stop-opacity=".46"/><stop offset=".24" stop-color="#f48625" stop-opacity=".56"/><stop offset=".33" stop-color="#f49125" stop-opacity=".6"/><stop offset=".42" stop-color="#f26b26" stop-opacity=".64"/><stop offset=".57" stop-color="#f03b28" stop-opacity=".68"/><stop offset=".66" stop-color="#ef2929" stop-opacity=".7"/><stop offset=".69" stop-color="#f03329" stop-opacity=".63"/><stop offset=".76" stop-color="#f14328" stop-opacity=".53"/><stop offset=".83" stop-color="#f14d27" stop-opacity=".46"/><stop offset=".91" stop-color="#f25427" stop-opacity=".41"/><stop offset="1" stop-color="#f25627" stop-opacity=".4"/></radialGradient><radialGradient xlink:href="#b" id="q" cy="256.56" r="163.39"/><radialGradient id="c" cx="256.08" cy="244.76" r="26.25" gradientUnits="userSpaceOnUse"><stop offset="0" stop-color="#f7c523"/><stop offset=".54" stop-color="#f7b323"/><stop offset="1" stop-color="#f7a923"/></radialGradient><radialGradient xlink:href="#c" id="r" cx="256.08" cy="244.76" r="10.48"/><radialGradient xlink:href="#c" id="s" cx="238.35" cy="262.2" r="5.86"/><radialGradient id="d" cx="256.08" cy="244.78" r="37.37" gradientUnits="userSpaceOnUse"><stop offset="0" stop-color="#f7c523"/><stop offset=".29" stop-color="#f7c323"/><stop offset=".52" stop-color="#f6bb23" stop-opacity=".98"/><stop offset=".72" stop-color="#f6ae24" stop-opacity=".96"/><stop offset=".91" stop-color="#f59c25" stop-opacity=".92"/><stop offset="1" stop-color="#f49125" stop-opacity=".9"/></radialGradient><radialGradient xlink:href="#d" id="t" cx="256.87" cy="244.75" r="60.33"/><radialGradient xlink:href="#c" id="u" cx="303.94" cy="288.07" r="9.54"/><radialGradient xlink:href="#c" id="v" cx="315.34" cy="270.54" r="7.93"/><radialGradient xlink:href="#c" id="w" cx="277.18" cy="303.88" r="14.41"/><radialGradient xlink:href="#c" id="x" cx="250.27" cy="308.96" r="6.77"/><radialGradient xlink:href="#c" id="y" cx="234.45" cy="305.97" r="4.68"/><radialGradient xlink:href="#c" id="z" cx="256.08" cy="244.75" r="57.65"/><radialGradient xlink:href="#d" id="A" cx="256.08" cy="205.01" r="8.39"/><radialGradient xlink:href="#d" id="B" cx="290.44" cy="264.92" r="8.39"/><radialGradient xlink:href="#d" id="C" cx="221.71" cy="264.92" r="8.39"/><radialGradient xlink:href="#c" id="D" cx="306.66" cy="222.69" r="18.89"/><radialGradient xlink:href="#c" id="E" cx="380.85" cy="215.61" r="12.69" gradientTransform="rotate(-94.24 392.695 221.605)"/><radialGradient xlink:href="#c" id="F" cx="380.85" cy="215.61" r="5.04" gradientTransform="rotate(-94.24 392.695 221.605)"/><radialGradient xlink:href="#c" id="G" cx="372.32" cy="224" r="2.82" gradientTransform="rotate(-94.24 392.695 221.605)"/><radialGradient xlink:href="#d" id="H" cx="380.85" cy="215.62" r="18.04" gradientTransform="rotate(-94.24 392.695 221.605)"/><radialGradient xlink:href="#d" id="I" cx="381.24" cy="215.61" r="29.29" gradientTransform="rotate(-94.24 392.695 221.605)"/><radialGradient xlink:href="#c" id="J" cx="403.89" cy="236.46" r="4.63" gradientTransform="rotate(-94.24 392.695 221.605)"/><radialGradient xlink:href="#c" id="K" cx="409.37" cy="228.02" r="3.85" gradientTransform="rotate(-94.24 392.695 221.605)"/><radialGradient xlink:href="#c" id="L" cx="391.02" cy="244.06" r="6.96" gradientTransform="rotate(-94.24 392.695 221.605)"/><radialGradient xlink:href="#c" id="M" cx="378.08" cy="246.5" r="3.29" gradientTransform="rotate(-94.24 392.695 221.605)"/><radialGradient xlink:href="#c" id="N" cx="370.44" cy="245.07" r="2.28" gradientTransform="rotate(-94.24 392.695 221.605)"/><radialGradient xlink:href="#c" id="O" cx="380.85" cy="215.61" r="27.8" gradientTransform="rotate(-94.24 392.695 221.605)"/><radialGradient xlink:href="#d" id="P" cx="380.85" cy="196.48" r="4.1" gradientTransform="rotate(-94.24 392.695 221.605)"/><radialGradient xlink:href="#d" id="Q" cx="397.39" cy="225.31" r="4.1" gradientTransform="rotate(-94.24 392.695 221.605)"/><radialGradient xlink:href="#d" id="R" cx="364.32" cy="225.31" r="4.1" gradientTransform="rotate(-94.24 392.695 221.605)"/><radialGradient id="e" cx="-483.89" cy="329.48" r="88.69" gradientTransform="matrix(.48 0 0 1 333.34 0)" gradientUnits="userSpaceOnUse"><stop offset="0" stop-color="#f7c523"/><stop offset=".16" stop-color="#f7c323"/><stop offset=".29" stop-color="#f6bb23" stop-opacity=".98"/><stop offset=".41" stop-color="#f6ae24" stop-opacity=".96"/><stop offset=".52" stop-color="#f59c25" stop-opacity=".92"/><stop offset=".57" stop-color="#f49125" stop-opacity=".9"/><stop offset=".64" stop-color="#f49125" stop-opacity=".77"/><stop offset=".75" stop-color="#f49125" stop-opacity=".61"/><stop offset=".85" stop-color="#f49125" stop-opacity=".49"/><stop offset=".94" stop-color="#f49125" stop-opacity=".42"/><stop offset="1" stop-color="#f49125" stop-opacity=".4"/></radialGradient><radialGradient id="f" cx="98.66" cy="295.19" r="108.48" gradientTransform="matrix(1 0 0 .43 0 206.58)" gradientUnits="userSpaceOnUse"><stop offset="0" stop-color="#f7c523"/><stop offset=".16" stop-color="#f7c323"/><stop offset=".29" stop-color="#f6bb23" stop-opacity=".98"/><stop offset=".41" stop-color="#f6ae24" stop-opacity=".96"/><stop offset=".52" stop-color="#f59c25" stop-opacity=".92"/><stop offset=".57" stop-color="#f49125" stop-opacity=".9"/><stop offset=".69" stop-color="#f49125" stop-opacity=".77"/><stop offset=".96" stop-color="#f49125" stop-opacity=".45"/><stop offset="1" stop-color="#f49125" stop-opacity=".4"/></radialGradient><radialGradient xlink:href="#e" id="S" cx="164.94" cy="329.48" r="88.69"/><radialGradient xlink:href="#f" id="T" cx="413.33" cy="295.19" r="108.48"/><radialGradient xlink:href="#e" id="U" cx="-159.4" cy="447.61" r="88.69"/><radialGradient xlink:href="#f" id="V" cx="256.03" cy="569.53" r="108.48"/><radialGradient id="g" cx="256" cy="248.24" r="241.84" gradientUnits="userSpaceOnUse"><stop offset="0" stop-color="#ff7f00"/><stop offset=".06" stop-color="#ff7f00" stop-opacity=".96"/><stop offset=".17" stop-color="#ff7f00" stop-opacity=".85"/><stop offset=".31" stop-color="#ff7f00" stop-opacity=".68"/><stop offset=".37" stop-color="#ff7f00" stop-opacity=".6"/><stop offset=".68" stop-color="#ff7f00" stop-opacity=".6"/><stop offset=".78" stop-color="#ff7f00" stop-opacity=".4"/><stop offset=".93" stop-color="#ff7f00" stop-opacity=".11"/><stop offset="1" stop-color="#ff7f00" stop-opacity="0"/></radialGradient><radialGradient xlink:href="#g" id="W" cx="256" cy="244.16" r="162.39"/><radialGradient id="X" cx="256" cy="256" r="241.11" gradientUnits="userSpaceOnUse"><stop offset="0" stop-color="#ea3815" stop-opacity=".8"/><stop offset=".11" stop-color="#ea3815" stop-opacity=".76"/><stop offset=".31" stop-color="#ea3815" stop-opacity=".64"/><stop offset=".37" stop-color="#ea3815" stop-opacity=".6"/><stop offset=".68" stop-color="#ea3815" stop-opacity=".6"/><stop offset=".76" stop-color="#ea3815" stop-opacity=".43"/><stop offset=".93" stop-color="#ea3815" stop-opacity=".12"/><stop offset="1" stop-color="#ea3815" stop-opacity="0"/></radialGradient><linearGradient id="m" x1="127.43" x2="384.57" y1="244.84" y2="244.84" gradientUnits="userSpaceOnUse"><stop offset="0" stop-color="#f49125" stop-opacity=".8"/><stop offset=".1" stop-color="#f48e25" stop-opacity=".79"/><stop offset=".19" stop-color="#f48325" stop-opacity=".78"/><stop offset=".26" stop-color="#f37126" stop-opacity=".75"/><stop offset=".34" stop-color="#f25827" stop-opacity=".7"/><stop offset=".34" stop-color="#f25627" stop-opacity=".7"/><stop offset=".43" stop-color="#f26127" stop-opacity=".72"/><stop offset=".58" stop-color="#f37d26" stop-opacity=".77"/><stop offset=".67" stop-color="#f49125" stop-opacity=".8"/><stop offset=".77" stop-color="#f48425" stop-opacity=".8"/><stop offset=".94" stop-color="#f26327" stop-opacity=".8"/><stop offset="1" stop-color="#f25627" stop-opacity=".8"/></linearGradient><linearGradient id="h" x1="256" x2="256" y1="145.06" y2="344.62" gradientUnits="userSpaceOnUse"><stop offset="0" stop-color="#e82323" stop-opacity=".35"/><stop offset=".1" stop-color="#e82422" stop-opacity=".36"/><stop offset=".18" stop-color="#e82820" stop-opacity=".41"/><stop offset=".26" stop-color="#e92e1c" stop-opacity=".48"/><stop offset=".33" stop-color="#ea3616" stop-opacity=".58"/><stop offset=".34" stop-color="#ea3815" stop-opacity=".6"/><stop offset=".51" stop-color="#ea3815" stop-opacity=".64"/><stop offset=".67" stop-color="#ea3815" stop-opacity=".7"/><stop offset=".73" stop-color="#e63616" stop-opacity=".66"/><stop offset=".83" stop-color="#da2f1a" stop-opacity=".56"/><stop offset=".96" stop-color="#c7251f" stop-opacity=".41"/><stop offset="1" stop-color="#c12121" stop-opacity=".35"/></linearGradient><linearGradient xlink:href="#h" id="n" x1="331.45" x2="180.55" y1="375.52" y2="114.16"/><linearGradient id="o" x1="255.95" x2="255.95" y1="462.03" y2="26.29" gradientUnits="userSpaceOnUse"><stop offset="0" stop-color="#e82323" stop-opacity="0"/><stop offset=".07" stop-color="#e82423" stop-opacity=".01"/><stop offset=".13" stop-color="#e82522" stop-opacity=".06"/><stop offset=".19" stop-color="#e82820" stop-opacity=".13"/><stop offset=".24" stop-color="#e92c1d" stop-opacity=".23"/><stop offset=".29" stop-color="#e9311a" stop-opacity=".37"/><stop offset=".33" stop-color="#ea3716" stop-opacity=".53"/><stop offset=".34" stop-color="#ea3815" stop-opacity=".55"/><stop offset=".47" stop-color="#ea3815" stop-opacity=".59"/><stop offset=".67" stop-color="#ea3815" stop-opacity=".7"/><stop offset=".72" stop-color="#e63616" stop-opacity=".66"/><stop offset=".82" stop-color="#dc3019" stop-opacity=".56"/><stop offset=".94" stop-color="#cb261e" stop-opacity=".39"/><stop offset="1" stop-color="#c12121" stop-opacity=".3"/></linearGradient><linearGradient id="p" x1="255.95" x2="255.95" y1="462.53" y2="25.79" gradientUnits="userSpaceOnUse"><stop offset="0" stop-color="#f25627" stop-opacity=".1"/><stop offset=".09" stop-color="#f25427" stop-opacity=".11"/><stop offset=".17" stop-color="#f14e27" stop-opacity=".16"/><stop offset=".24" stop-color="#f14328" stop-opacity=".23"/><stop offset=".3" stop-color="#f03429" stop-opacity=".33"/><stop offset=".34" stop-color="#ef2929" stop-opacity=".4"/><stop offset=".45" stop-color="#f04228" stop-opacity=".4"/><stop offset=".64" stop-color="#f38625" stop-opacity=".4"/><stop offset=".67" stop-color="#f49125" stop-opacity=".4"/><stop offset=".74" stop-color="#f48925" stop-opacity=".36"/><stop offset=".87" stop-color="#f37326" stop-opacity=".25"/><stop offset="1" stop-color="#f25627" stop-opacity=".1"/></linearGradient></defs><g data-name="Layer 1" style="isolation:isolate"><path fill="url(#a)" d="M141.3 331.56v-4.29l-4.9-1.64c-.08-.8-.18-1.6-.31-2.38l4.31-2.86-1.1-4.14-5.15-.3c-.28-.76-.59-1.5-.92-2.24l3.43-3.86-2.14-3.72-5 1.05q-.71-1-1.47-1.92l2.31-4.63-3-3-4.59 2.32c-.62-.52-1.26-1-1.92-1.49l1-5.05-3.7-2.15-3.82 3.42c-.74-.34-1.49-.65-2.25-.94l-.3-5.13-4.12-1.11-2.81 4.28c-.8-.13-1.61-.24-2.43-.32l-1.6-4.86h-4.29l-1.6 4.84c-.83.08-1.65.19-2.45.32l-2.79-4.26-4.13 1.11-.29 5.07c-.78.29-1.55.61-2.31 1l-3.77-3.37-3.7 2.15 1 5c-.68.49-1.34 1-2 1.53L70 297.6l-3 3 2.26 4.52c-.54.65-1.05 1.32-1.54 2l-4.92-1-2.13 3.72 3.33 3.77c-.35.77-.68 1.55-1 2.35l-5 .29-1.11 4.14 4.19 2.77q-.21 1.24-.33 2.52L56 327.27v4.29l4.76 1.58q.12 1.28.33 2.52l-4.19 2.77 1.1 4.14 5 .3c.3.79.63 1.58 1 2.35L60.67 349l2.13 3.71 4.92-1c.49.69 1 1.36 1.54 2L67 358.19l3 3 4.5-2.28c.65.54 1.31 1.05 2 1.53l-1 5 3.7 2.14 3.8-3.36q1.14.51 2.31 1l.29 5.06 4.13 1.11 2.79-4.25c.8.13 1.62.23 2.45.31l1.6 4.85h4.27l1.6-4.86q1.23-.12 2.43-.33l2.81 4.28 4.12-1.11.3-5.12c.76-.29 1.51-.6 2.25-.94l3.82 3.41 3.7-2.14-1-5.06c.66-.47 1.3-1 1.92-1.48l4.59 2.32 3-3-2.38-4.7q.77-.94 1.47-1.92l5 1 2.14-3.71-3.43-3.87c.33-.73.64-1.48.92-2.23l5.15-.31 1.1-4.14-4.31-2.85c.13-.79.23-1.59.31-2.39Zm-39.79-33.82a31.59 31.59 0 0 1 23 13.38l-19.42 11.27a9.3 9.3 0 0 0-3.56-2.07Zm-18.85 4.18a31.4 31.4 0 0 1 13.15-4.19v22.59a9.3 9.3 0 0 0-3.56 2.07l-8-4.63-11.54-6.7a32 32 0 0 1 9.95-9.14m-12.79 40.89a32 32 0 0 1 0-26.79l19.53 11.33a9.3 9.3 0 0 0-.23 2.06 9.5 9.5 0 0 0 .23 2.07Zm25.94 18.29a31.64 31.64 0 0 1-23.08-13.34l19.52-11.32a9.4 9.4 0 0 0 3.56 2.07Zm2.85-26.73a5 5 0 1 1 4.94-5 4.95 4.95 0 0 1-4.94 5m2.85 26.72v-22.58a9.4 9.4 0 0 0 3.56-2.07l19.42 11.26a31.6 31.6 0 0 1-22.98 13.39m25.83-18.35-19.42-11.26a9.5 9.5 0 0 0 .23-2.07 9.3 9.3 0 0 0-.23-2.06l19.42-11.27a32 32 0 0 1 0 26.66"/><path fill="url(#i)" d="M456 331.56v-4.29l-4.9-1.64c-.08-.8-.19-1.6-.31-2.38l4.31-2.86-1.1-4.14-5.14-.3c-.29-.76-.59-1.5-.92-2.24l3.42-3.86-2.13-3.72-5.05 1.05c-.46-.66-.95-1.3-1.46-1.92l2.31-4.63-3-3-4.59 2.32c-.62-.52-1.27-1-1.92-1.49l1-5.05-3.7-2.15-3.82 3.39c-.74-.34-1.49-.65-2.26-.94l-.29-5.13-4.13-1.11-2.8 4.28c-.8-.13-1.61-.24-2.43-.32l-1.61-4.86h-4.27l-1.6 4.84c-.82.08-1.64.19-2.45.32l-2.79-4.26-4.12 1.11-.3 5.07c-.78.29-1.55.61-2.3 1l-3.77-3.37-3.7 2.15 1 5c-.68.49-1.35 1-2 1.53l-4.51-2.27-3 3 2.25 4.52c-.53.65-1 1.32-1.53 2l-4.92-1-2.14 3.72 3.33 3.76c-.35.77-.67 1.55-1 2.35l-5 .29-1.1 4.14 4.18 2.77q-.21 1.24-.33 2.52l-4.75 1.59v4.29l4.75 1.58q.12 1.28.33 2.52l-4.18 2.77 1.1 4.14 5 .3c.3.79.62 1.58 1 2.35l-3.33 3.7 2.14 3.71 4.92-1q.74 1 1.53 2l-2.25 4.51 3 3 4.51-2.28a27 27 0 0 0 2 1.53l-1 5 3.7 2.14 3.77-3.37c.75.34 1.52.66 2.3 1l.3 5.06 4.12 1.11 2.79-4.25c.81.13 1.63.23 2.45.31l1.6 4.85h4.27l1.61-4.86q1.23-.12 2.43-.33l2.8 4.28 4.13-1.11.29-5.12c.77-.29 1.52-.6 2.26-.94l3.82 3.41 3.7-2.14-1-5.06c.65-.47 1.3-1 1.92-1.48l4.59 2.32 3-3-2.31-4.62c.51-.63 1-1.27 1.46-1.92l5.05 1 2.13-3.71-3.42-3.87c.33-.73.63-1.48.92-2.23l5.14-.31 1.11-4.14-4.31-2.85c.12-.79.23-1.59.31-2.39Zm-39.79-33.82a31.59 31.59 0 0 1 23 13.38l-19.41 11.27a9.3 9.3 0 0 0-3.56-2.07Zm-18.85 4.18a31.36 31.36 0 0 1 13.15-4.19v22.59a9.3 9.3 0 0 0-3.56 2.07l-8-4.63-11.54-6.7a31.9 31.9 0 0 1 9.92-9.14Zm-12.79 40.89a32 32 0 0 1 0-26.79l19.52 11.33a10 10 0 0 0-.22 2.06 10 10 0 0 0 .22 2.07Zm25.94 18.29a31.62 31.62 0 0 1-23.08-13.34l19.52-11.32a9.4 9.4 0 0 0 3.56 2.07Zm2.85-26.73a5 5 0 1 1 4.94-5 4.95 4.95 0 0 1-4.97 5Zm2.85 26.72v-22.58a9.4 9.4 0 0 0 3.56-2.07l19.41 11.26a31.6 31.6 0 0 1-23 13.39ZM442 342.74l-19.41-11.26a9.5 9.5 0 0 0 .23-2.07 9.3 9.3 0 0 0-.23-2.06L442 316.08a31.89 31.89 0 0 1 0 26.66"/><path fill="url(#j)" d="M298.69 449.8v-4.28l-4.9-1.64c-.08-.8-.18-1.6-.31-2.39l4.31-2.85-1.1-4.14-5.15-.3c-.28-.76-.59-1.51-.92-2.24l3.43-3.87-2.14-3.71-5 1q-.71-1-1.47-1.92l2.31-4.62-3-3-4.59 2.31c-.62-.51-1.26-1-1.92-1.48l1-5.05-3.7-2.15-3.82 3.41c-.74-.33-1.49-.65-2.25-.94l-.3-5.12-4.17-1.1-2.78 4.28q-1.2-.21-2.43-.33l-1.6-4.86h-4.27l-1.6 4.85c-.83.08-1.65.18-2.46.32l-2.78-4.26-4.08 1.11-.29 5.07c-.78.29-1.55.61-2.31 1l-3.77-3.37-3.7 2.15 1 5c-.68.49-1.34 1-2 1.53l-4.5-2.27-3 3 2.26 4.51c-.54.65-1.05 1.32-1.54 2l-4.92-1-2.13 3.71 3.32 3.76c-.34.77-.67 1.56-1 2.35l-5 .3-1.11 4.14 4.18 2.77c-.13.83-.24 1.67-.32 2.52l-4.76 1.59v4.28l4.76 1.59c.08.85.19 1.69.32 2.52l-4.18 2.77 1.11 4.14 5 .29c.3.8.63 1.58 1 2.35l-3.32 3.77 2.13 3.71 4.92-1c.49.69 1 1.35 1.54 2l-2.26 4.52 3 3 4.5-2.27c.65.53 1.31 1 2 1.53l-1 5 3.7 2.15 3.77-3.37c.76.34 1.53.66 2.31.95l.29 5.07 4.13 1.11 2.78-4.26c.81.13 1.63.24 2.46.32l1.6 4.85h4.27l1.6-4.86q1.23-.13 2.43-.33l2.73 4.18 4.12-1.11.3-5.12c.76-.29 1.51-.61 2.25-.95l3.82 3.42 3.7-2.15-1-5.05c.66-.47 1.3-1 1.92-1.48l4.59 2.31 3-3-2.31-4.62c.51-.63 1-1.27 1.47-1.93l5 1.05 2.14-3.71-3.43-3.87c.33-.73.64-1.48.92-2.24l5.15-.3 1.1-4.14-4.31-2.85c.13-.79.23-1.59.31-2.39ZM258.9 416a31.61 31.61 0 0 1 23 13.38l-19.42 11.26a9.6 9.6 0 0 0-3.56-2.07Zm-18.85 4.18A31.3 31.3 0 0 1 253.2 416v22.58a9.6 9.6 0 0 0-3.56 2.07l-8-4.63-11.54-6.69a32 32 0 0 1 9.95-9.16Zm-12.79 40.88a32 32 0 0 1 0-26.78l19.53 11.32a9.4 9.4 0 0 0 0 4.14Zm25.94 18.29A31.57 31.57 0 0 1 230.12 466l19.52-11.32a9.6 9.6 0 0 0 3.56 2.07Zm2.85-26.72a5 5 0 1 1 4.94-5 4.95 4.95 0 0 1-4.94 4.99Zm2.85 26.71v-22.58a9.6 9.6 0 0 0 3.56-2.07L281.88 466a31.61 31.61 0 0 1-22.98 13.33ZM284.73 461l-19.42-11.26a9.4 9.4 0 0 0 0-4.14l19.42-11.26a32 32 0 0 1 0 26.66"/><path fill="url(#k)" d="m204.89 104.75-.82-4.21-5.07-.67c-.23-.77-.49-1.53-.77-2.28l3.64-3.59-1.87-3.89-5.1.69c-.43-.69-.87-1.37-1.33-2l2.61-4.45-2.8-3.24-4.75 2c-.59-.55-1.19-1.09-1.81-1.6l1.38-5-3.54-2.4-4.06 3.15c-.72-.39-1.44-.75-2.17-1.09l.05-5.16-4-1.39-3.1 4.08c-.79-.19-1.59-.35-2.39-.49l-1.28-5-4.26-.3-1.93 4.73c-.81 0-1.63.07-2.45.15l-2.5-4.46-4.19.82-.64 5.06c-.8.23-1.58.49-2.35.78l-3.55-3.65-3.84 1.9.68 5c-.71.44-1.4.9-2.08 1.38l-4.34-2.58-3.26 2.84 1.95 4.68c-.58.61-1.13 1.23-1.66 1.88l-4.86-1.37-2.43 3.56 3.08 4c-.4.74-.77 1.49-1.12 2.26l-5-.06-1.38 4 4 3.06c-.2.82-.36 1.65-.5 2.49l-4.85 1.25-.29 4.27 4.63 1.92c0 .84.08 1.69.16 2.54l-4.36 2.46.82 4.21 5 .65c.24.82.51 1.62.81 2.41l-3.58 3.52 1.88 3.85 5-.67c.45.73.91 1.43 1.4 2.12l-2.54 4.33 2.8 3.24 4.64-1.95q.91.87 1.89 1.68l-1.35 4.86 3.54 2.4 4-3.09c.73.4 1.48.77 2.24 1.12l-.05 5.06 4 1.4 3.06-4c.81.19 1.62.36 2.45.5l1.26 4.91 4.26.3 1.92-4.71c.82 0 1.64-.08 2.47-.16l2.49 4.45 4.19-.82.65-5.07c.79-.24 1.56-.5 2.32-.79l3.57 3.66 3.84-1.88-.69-5.08c.69-.43 1.37-.89 2-1.36l4.41 2.62 3.21-2.81-2-4.76c.55-.59 1.08-1.2 1.6-1.83l5 1.4 2.38-3.56-3.15-4.1c.37-.7.73-1.43 1.07-2.16l5.15.06 1.38-4.06-4.1-3.14c.18-.78.34-1.57.47-2.37l5-1.28.3-4.28-4.78-2c0-.8-.08-1.6-.16-2.4Zm-45.53-25.57a31.58 31.58 0 0 1 25.11 8.73l-16.89 14.77a9.4 9.4 0 0 0-3.89-1.34Zm-17.7 7.71a31.35 31.35 0 0 1 12.1-6.63l2.56 13.11 1.77 9.06a9.4 9.4 0 0 0-3.1 2.71l-8.71-3-12.61-4.36a31.8 31.8 0 0 1 7.99-10.89m-4.72 42.58a32 32 0 0 1-5.13-26.29l21.33 7.38a9.8 9.8 0 0 0 .18 2.07 8.8 8.8 0 0 0 .62 2Zm29 13a31.58 31.58 0 0 1-25.2-8.67l17-14.85a9.36 9.36 0 0 0 3.9 1.35Zm-2.32-26.77a5 5 0 1 1 3.9-5.82 5 5 0 0 1-3.94 5.8Zm7.92 25.67-4.33-22.16a9.4 9.4 0 0 0 3.1-2.71l21.21 7.33a31.58 31.58 0 0 1-20.02 17.52Zm21.83-22.95-21.21-7.34a9.8 9.8 0 0 0-.18-2.07 9 9 0 0 0-.61-2l16.89-14.78a31.91 31.91 0 0 1 5.11 26.17Z"/><path fill="url(#l)" d="m391.8 117.24.43-4.26-4.71-2.12c0-.81 0-1.61-.07-2.41l4.58-2.4-.68-4.24-5.09-.82c-.2-.78-.43-1.55-.68-2.31l3.79-3.5-1.75-3.91-5.12.53c-.4-.7-.82-1.39-1.27-2.06l2.77-4.37-2.7-3.32-4.8 1.84c-.57-.58-1.16-1.13-1.76-1.67l1.54-4.92-3.46-2.51-4.15 3c-.7-.41-1.41-.8-2.15-1.16l.22-5.13-4-1.52-3.22 4c-.78-.21-1.58-.4-2.38-.57l-1.11-5-4.24-.41-2.08 4.66c-.83 0-1.65 0-2.47.06l-2.34-4.51-4.22.69-.8 5q-1.22.32-2.4.72l-3.41-3.74-3.89 1.76.51 5q-1.08.63-2.13 1.32l-4.25-2.71L321 79l1.79 4.72c-.6.59-1.18 1.21-1.73 1.84L316.27 84l-2.5 3.48 2.93 4.08c-.43.73-.83 1.48-1.2 2.24l-5-.21-1.51 4 3.88 3.17c-.22.82-.41 1.64-.58 2.48l-4.89 1.09-.43 4.27 4.57 2.06c0 .85 0 1.7.07 2.54l-4.44 2.33.68 4.23 4.94.8c.22.82.46 1.64.73 2.44l-3.69 3.4 1.75 3.91 5-.51c.42.73.86 1.44 1.32 2.14l-2.7 4.27 2.7 3.32 4.71-1.8c.59.59 1.2 1.16 1.82 1.72l-1.51 4.83 3.46 2.51 4.09-3c.72.41 1.45.81 2.2 1.18l-.21 5.07 4 1.52 3.2-3.95c.79.21 1.59.4 2.41.56l1.1 5 4.25.43 2.08-4.67c.83 0 1.64 0 2.46-.08l2.35 4.54 4.22-.69.81-5.06c.79-.22 1.57-.45 2.34-.71l3.46 3.78L369 149l-.52-5.13c.7-.41 1.39-.84 2.06-1.29l4.33 2.77 3.31-2.71-1.83-4.84c.57-.57 1.12-1.16 1.65-1.76l4.91 1.55 2.5-3.48-3-4.19c.4-.7.78-1.41 1.14-2.14l5.15.22 1.51-4-4-3.27c.21-.77.39-1.55.55-2.35Zm-36.17-37.65a31.54 31.54 0 0 1 21.5 15.63l-20.45 9.24a9.45 9.45 0 0 0-3.33-2.41Zm-19.18 2.26A31.16 31.16 0 0 1 350 79l-1.34 13.29-.93 9.18a9.6 9.6 0 0 0-3.76 1.7l-7.46-5.41-10.81-7.82a31.8 31.8 0 0 1 10.75-8.09m-16.85 39.38a32 32 0 0 1 2.7-26.65l18.29 13.24a9.8 9.8 0 0 0-.44 2 9.6 9.6 0 0 0 0 2.08Zm24 20.81a31.58 31.58 0 0 1-21.6-15.59l20.56-9.3a9.5 9.5 0 0 0 3.33 2.42Zm5.53-26.29a5 5 0 1 1 5.42-4.44 5 5 0 0 1-5.46 4.44Zm.15 26.86 2.27-22.46a9.6 9.6 0 0 0 3.76-1.7l18.17 13.16a31.58 31.58 0 0 1-24.24 11Zm27.5-15.61-18.18-13.2a10.5 10.5 0 0 0 .44-2 9.6 9.6 0 0 0 0-2.08l20.45-9.25a32 32 0 0 1-2.71 26.53"/><path fill="url(#m)" d="M367.1 245a111.4 111.4 0 0 0-2.48-23.11l17.11-3.65a128.5 128.5 0 0 0-8.36-25.56l-16 7.17a111.8 111.8 0 0 0-11.66-20.06l14.15-10.34a129.5 129.5 0 0 0-18-19.92l-11.7 13a111.8 111.8 0 0 0-18.8-13.62l8.75-15.19a128 128 0 0 0-24.58-10.9l-5.38 16.65a110 110 0 0 0-22.71-4.8l1.78-17.38a131.6 131.6 0 0 0-26.84 0l1.83 17.38a110 110 0 0 0-22.69 4.87l-5.43-16.64a128 128 0 0 0-24.54 11l8.8 15.16a112 112 0 0 0-18.76 13.67l-11.74-13a129.5 129.5 0 0 0-18 20L166.08 180a110.4 110.4 0 0 0-11.61 20.1l-16-7.12a128 128 0 0 0-8.28 25.59l17.11 3.59a111.6 111.6 0 0 0-2.4 23s0 .08 0 .12h-17.47a129.7 129.7 0 0 0 2.81 26.72l17.11-3.63a110 110 0 0 0 7.22 22.05l-16 7.15a129.3 129.3 0 0 0 13.48 23.25l14.16-10.33a112 112 0 0 0 15.55 17.24l-11.72 13a129 129 0 0 0 21.74 15.79l8.77-15.18a111 111 0 0 0 21.19 9.46l-5.4 16.65a128 128 0 0 0 26.31 5.55l1.79-17.37a111 111 0 0 0 23.24 0l1.81 17.38a128.7 128.7 0 0 0 26.3-5.58l-5.42-16.65a110 110 0 0 0 21.18-9.48l8.79 15.17a128.3 128.3 0 0 0 21.71-15.81l-11.73-13a112 112 0 0 0 15.53-17.26L360 320.74a128.4 128.4 0 0 0 13.45-23.27l-16-7.13a110.4 110.4 0 0 0 7.2-22.06l17.11 3.61a129.6 129.6 0 0 0 2.78-26.66v-.36ZM256 351.67a106.49 106.49 0 1 1 106.49-106.49A106.61 106.61 0 0 1 256 351.67"/><path fill="url(#h)" d="M256 145.06a99.78 99.78 0 1 0 99.78 99.78A99.89 99.89 0 0 0 256 145.06m0 181.24a81.46 81.46 0 1 1 81.46-81.46A81.56 81.56 0 0 1 256 326.3"/><path fill="url(#n)" d="M256 93.91c-83.22 0-150.93 67.71-150.93 150.93S172.78 395.77 256 395.77s150.93-67.71 150.93-150.93S339.22 93.91 256 93.91m0 291.39c-77.45 0-140.46-63-140.46-140.46s63-140.46 140.46-140.46 140.46 63 140.46 140.46S333.45 385.3 256 385.3"/><path fill="url(#o)" d="M444.85 242.45a189 189 0 0 0-3.79-35.34 2 2 0 0 1 1.53-2.36l25.17-5.38a2 2 0 0 0 1.54-2.37 218.4 218.4 0 0 0-13-39.63 2 2 0 0 0-2.66-1l-23.53 10.56a2 2 0 0 1-2.63-1 190 190 0 0 0-17.84-30.68 2 2 0 0 1 .43-2.78L431 117.21a2 2 0 0 0 .43-2.82 220.6 220.6 0 0 0-27.99-30.89 2 2 0 0 0-2.84.15l-17.23 19.19a2 2 0 0 1-2.81.16 189.5 189.5 0 0 0-28.76-20.83 2 2 0 0 1-.73-2.72L364 57.09a2 2 0 0 0-.75-2.75 218.6 218.6 0 0 0-38.11-16.9 2 2 0 0 0-2.54 1.29l-7.91 24.51a2 2 0 0 1-2.5 1.28 188 188 0 0 0-34.74-7.35 2 2 0 0 1-1.81-2.17l2.61-25.56a2 2 0 0 0-1.8-2.2 222.6 222.6 0 0 0-41.62.07 2 2 0 0 0-1.8 2.2l2.7 25.57a2 2 0 0 1-1.73 2.18 186.5 186.5 0 0 0-34.71 7.46 2 2 0 0 1-2.51-1.28l-8-24.49a2 2 0 0 0-2.54-1.28 217 217 0 0 0-38.05 17 2 2 0 0 0-.74 2.75l13 22.31a2 2 0 0 1-.72 2.72A189.5 189.5 0 0 0 131 103.4a2 2 0 0 1-2.8-.15l-17.32-19.13A2 2 0 0 0 108 84a220.6 220.6 0 0 0-27.8 31 2 2 0 0 0 .44 2.81l20.89 15.16a2 2 0 0 1 .45 2.78 188 188 0 0 0-17.76 30.75 2 2 0 0 1-2.63 1L58 157a2 2 0 0 0-2.66 1 217.6 217.6 0 0 0-12.83 39.67 2 2 0 0 0 1.55 2.39l25.17 5.29a2 2 0 0 1 1.56 2.23c-1.47 10.36-3.07 29.62-3.55 35.62a2 2 0 0 1-2 1.83H39.42a2 2 0 0 0-2 2 221 221 0 0 0 4.36 41.42 2 2 0 0 0 2.38 1.55l25.17-5.35a2 2 0 0 1 2.36 1.52 187.4 187.4 0 0 0 11 33.74 2 2 0 0 1-1 2.62l-23.47 10.6a2 2 0 0 0-1 2.66 219 219 0 0 0 20.89 36 2 2 0 0 0 2.81.45l20.85-15.2a2 2 0 0 1 2.78.43 190.3 190.3 0 0 0 23.79 26.38 2 2 0 0 1 .14 2.81l-17.25 19.17a2 2 0 0 0 .16 2.84 219.7 219.7 0 0 0 33.7 24.49 2 2 0 0 0 2.75-.73l12.91-22.35a2 2 0 0 1 2.72-.73 187.3 187.3 0 0 0 32.42 14.47 2 2 0 0 1 1.27 2.51l-7.94 24.51a2 2 0 0 0 1.3 2.53A218 218 0 0 0 231.3 462a2 2 0 0 0 2.21-1.79l2.64-25.56a2 2 0 0 1 2.18-1.78c5.82.54 11.71.83 17.67.83s12-.3 17.88-.85a2 2 0 0 1 2.18 1.77l2.67 25.56a2 2 0 0 0 2.21 1.79 218.6 218.6 0 0 0 40.78-8.65 2 2 0 0 0 1.29-2.53l-8-24.5a2 2 0 0 1 1.26-2.51 188.4 188.4 0 0 0 32.41-14.5 2 2 0 0 1 2.71.73l12.93 22.33a2 2 0 0 0 2.75.72 219 219 0 0 0 33.67-24.51 2 2 0 0 0 .16-2.85l-17.27-19.15a2 2 0 0 1 .14-2.81 190.3 190.3 0 0 0 23.76-26.41 2 2 0 0 1 2.78-.43l20.86 15.18a2 2 0 0 0 2.81-.45 218.3 218.3 0 0 0 20.87-36.08 2 2 0 0 0-1-2.66l-23.56-10.5a2 2 0 0 1-1-2.62 186.6 186.6 0 0 0 11-33.75 2 2 0 0 1 2.36-1.53l25.17 5.32a2 2 0 0 0 2.38-1.58c2.4-12.92 3.81-34.94 4.21-41.82a2 2 0 0 0-2-2.11l-25.59.11a2 2 0 0 1-1.97-1.96m-186.33 183.4C156.71 427.24 73.6 344.13 75 242.32c1.31-96 82.51-177.17 178.48-178.49 101.81-1.4 184.93 81.72 183.52 183.54-1.31 95.97-82.51 177.17-178.48 178.48"/><path fill="none" stroke="url(#p)" stroke-miterlimit="10" d="M444.85 242.45a189 189 0 0 0-3.79-35.34 2 2 0 0 1 1.53-2.36l25.17-5.38a2 2 0 0 0 1.54-2.37 218.4 218.4 0 0 0-13-39.63 2 2 0 0 0-2.66-1l-23.53 10.56a2 2 0 0 1-2.63-1 190 190 0 0 0-17.84-30.68 2 2 0 0 1 .43-2.78L431 117.21a2 2 0 0 0 .43-2.82 220.6 220.6 0 0 0-27.99-30.89 2 2 0 0 0-2.84.15l-17.23 19.19a2 2 0 0 1-2.81.16 189.5 189.5 0 0 0-28.76-20.83 2 2 0 0 1-.73-2.72L364 57.09a2 2 0 0 0-.75-2.75 218.6 218.6 0 0 0-38.11-16.9 2 2 0 0 0-2.54 1.29l-7.91 24.51a2 2 0 0 1-2.5 1.28 188 188 0 0 0-34.74-7.35 2 2 0 0 1-1.81-2.17l2.61-25.56a2 2 0 0 0-1.8-2.2 222.6 222.6 0 0 0-41.62.07 2 2 0 0 0-1.8 2.2l2.7 25.57a2 2 0 0 1-1.73 2.18 186.5 186.5 0 0 0-34.71 7.46 2 2 0 0 1-2.51-1.28l-8-24.49a2 2 0 0 0-2.54-1.28 217 217 0 0 0-38.05 17 2 2 0 0 0-.74 2.75l13 22.31a2 2 0 0 1-.72 2.72A189.5 189.5 0 0 0 131 103.4a2 2 0 0 1-2.8-.15l-17.32-19.13A2 2 0 0 0 108 84a220.6 220.6 0 0 0-27.8 31 2 2 0 0 0 .44 2.81l20.89 15.16a2 2 0 0 1 .45 2.78 188 188 0 0 0-17.76 30.75 2 2 0 0 1-2.63 1L58 157a2 2 0 0 0-2.66 1 217.6 217.6 0 0 0-12.83 39.67 2 2 0 0 0 1.55 2.39l25.17 5.29a2 2 0 0 1 1.56 2.23c-1.47 10.36-3.07 29.62-3.55 35.62a2 2 0 0 1-2 1.83H39.42a2 2 0 0 0-2 2 221 221 0 0 0 4.36 41.42 2 2 0 0 0 2.38 1.55l25.17-5.35a2 2 0 0 1 2.36 1.52 187.4 187.4 0 0 0 11 33.74 2 2 0 0 1-1 2.62l-23.47 10.6a2 2 0 0 0-1 2.66 219 219 0 0 0 20.89 36 2 2 0 0 0 2.81.45l20.85-15.2a2 2 0 0 1 2.78.43 190.3 190.3 0 0 0 23.79 26.38 2 2 0 0 1 .14 2.81l-17.25 19.17a2 2 0 0 0 .16 2.84 219.7 219.7 0 0 0 33.7 24.49 2 2 0 0 0 2.75-.73l12.91-22.35a2 2 0 0 1 2.72-.73 187.3 187.3 0 0 0 32.42 14.47 2 2 0 0 1 1.27 2.51l-7.94 24.51a2 2 0 0 0 1.3 2.53A218 218 0 0 0 231.3 462a2 2 0 0 0 2.21-1.79l2.64-25.56a2 2 0 0 1 2.18-1.78c5.82.54 11.71.83 17.67.83s12-.3 17.88-.85a2 2 0 0 1 2.18 1.77l2.67 25.56a2 2 0 0 0 2.21 1.79 218.6 218.6 0 0 0 40.78-8.65 2 2 0 0 0 1.29-2.53l-8-24.5a2 2 0 0 1 1.26-2.51 188.4 188.4 0 0 0 32.41-14.5 2 2 0 0 1 2.71.73l12.93 22.33a2 2 0 0 0 2.75.72 219 219 0 0 0 33.67-24.51 2 2 0 0 0 .16-2.85l-17.27-19.15a2 2 0 0 1 .14-2.81 190.3 190.3 0 0 0 23.76-26.41 2 2 0 0 1 2.78-.43l20.86 15.18a2 2 0 0 0 2.81-.45 218.3 218.3 0 0 0 20.87-36.08 2 2 0 0 0-1-2.66l-23.56-10.5a2 2 0 0 1-1-2.62 186.6 186.6 0 0 0 11-33.75 2 2 0 0 1 2.36-1.53l25.17 5.32a2 2 0 0 0 2.38-1.58c2.4-12.92 3.81-34.94 4.21-41.82a2 2 0 0 0-2-2.11l-25.59.11a2 2 0 0 1-1.97-1.96Zm-186.33 183.4C156.71 427.24 73.6 344.13 75 242.32c1.31-96 82.51-177.17 178.48-178.49 101.81-1.4 184.93 81.72 183.52 183.54-1.31 95.97-82.51 177.17-178.48 178.48Z"/><path fill="none" stroke="url(#b)" stroke-miterlimit="10" stroke-width="4" d="M257.88 17.72 302.14 140a82 82 0 0 0 74.38 54l130 4.32a2 2 0 0 1 1.16 3.58L405 281.8a82 82 0 0 0-28.41 87.43l36.06 124.93a2 2 0 0 1-3.05 2.21L302 423.48a82 82 0 0 0-91.94 0l-107.7 72.89a2 2 0 0 1-3-2.21l36.06-124.93A82 82 0 0 0 107 281.8L4.36 201.92a2 2 0 0 1 1.16-3.58l130-4.32a82 82 0 0 0 74.38-54l44.22-122.3a2 2 0 0 1 3.76 0Z"/><path fill="none" stroke="url(#q)" stroke-miterlimit="10" stroke-width="4" d="m257.88 100.54 31.59 87.25a41 41 0 0 0 37.19 27l92.74 3.08a2 2 0 0 1 1.16 3.58l-73.22 57a41 41 0 0 0-14.2 43.72l25.73 89.15a2 2 0 0 1-3.05 2.21l-76.84-52a41 41 0 0 0-46 0l-76.84 52a2 2 0 0 1-3.05-2.21l27.61-95.65a31 31 0 0 0-10.7-33.04l-78.56-61.16a2 2 0 0 1 1.16-3.58l92.74-3.08a41 41 0 0 0 37.19-27l31.59-87.25a2 2 0 0 1 3.76-.02Z"/><path fill="none" stroke="url(#c)" stroke-miterlimit="10" stroke-width="6" d="M248.47 266.73A23.27 23.27 0 1 0 234 251.88"/><path fill="url(#r)" d="M266.56 244.76a10.48 10.48 0 1 1-3.23-7.57l-5.44 6.93 8.65.12a4 4 0 0 1 .02.52"/><path fill="url(#s)" d="m232.43 260.03 7.54 7.97 4.29-11.6z"/><circle cx="256.08" cy="244.78" r="34.37" fill="none" stroke="url(#d)" stroke-miterlimit="10" stroke-width="6"/><path fill="none" stroke="url(#t)" stroke-miterlimit="10" d="M231 190a60.22 60.22 0 1 1-33.54 68.47"/><path fill="none" stroke="url(#u)" stroke-miterlimit="10" stroke-width="6" d="M296.55 295.54a65.4 65.4 0 0 0 14.14-15.66"/><path fill="none" stroke="url(#v)" stroke-miterlimit="10" stroke-width="6" d="M318.68 262a64.6 64.6 0 0 1-7 16.3"/><path fill="none" stroke="url(#w)" stroke-miterlimit="10" stroke-width="6" d="M258.9 309.62a64.6 64.6 0 0 0 34.94-12"/><path fill="none" stroke="url(#x)" stroke-miterlimit="10" stroke-width="6" d="M242.11 308.17a64.3 64.3 0 0 0 14 1.51h1"/><path fill="none" stroke="url(#y)" stroke-miterlimit="10" stroke-width="6" d="M238.72 307.33a63 63 0 0 1-8.16-2.85"/><path fill="none" stroke="url(#z)" stroke-miterlimit="10" stroke-width="6" d="M310.71 243.18v1.58a54.63 54.63 0 1 1-39.28-52.46"/><circle cx="256.08" cy="205.01" r="5.39" fill="none" stroke="url(#A)" stroke-miterlimit="10" stroke-width="6"/><circle cx="290.44" cy="264.92" r="5.39" fill="none" stroke="url(#B)" stroke-miterlimit="10" stroke-width="6"/><circle cx="221.71" cy="264.92" r="5.39" fill="none" stroke="url(#C)" stroke-miterlimit="10" stroke-width="6"/><path fill="url(#D)" d="m322 226.12 3.32-.75a19.2 19.2 0 0 0 .11-4.53l-3.29-.9a16 16 0 0 0-.48-2l2.5-2.31a19.4 19.4 0 0 0-2.18-4l-3.3.86a16 16 0 0 0-1.39-1.46l1-3.25a18.3 18.3 0 0 0-3.87-2.35l-2.42 2.45a14 14 0 0 0-1.43-.44c-.17-.05-.34-.08-.51-.12l-.75-3.32a18.6 18.6 0 0 0-4.53-.11l-.91 3.29a17 17 0 0 0-2 .48l-2.31-2.5a19.2 19.2 0 0 0-4 2.18l.86 3.3a16 16 0 0 0-1.46 1.39l-3.25-1a18.3 18.3 0 0 0-2.35 3.88l2.39 2.42a13 13 0 0 0-.44 1.43c-.05.17-.08.34-.12.51L288 220a19 19 0 0 0-.1 4.53l3.29.9a16 16 0 0 0 .48 2l-2.5 2.31a19.2 19.2 0 0 0 2.18 4l3.29-.86a18 18 0 0 0 1.4 1.46l-1 3.25a18.3 18.3 0 0 0 3.88 2.35l2.42-2.39c.46.16.94.32 1.43.44l.5.12.76 3.32a18.6 18.6 0 0 0 4.53.11l.9-3.29a16 16 0 0 0 2-.48l2.31 2.5a19.2 19.2 0 0 0 4-2.18l-.86-3.3a16 16 0 0 0 1.46-1.39l3.25 1a19.5 19.5 0 0 0 2.35-3.88l-2.39-2.42c.16-.47.31-.94.44-1.43Zm-3-.24a12.78 12.78 0 1 1-9.18-15.57 12.77 12.77 0 0 1 9.18 15.57"/><g opacity=".81"><path fill="none" stroke="url(#E)" stroke-miterlimit="10" stroke-width="3" d="M398.44 236.75a11.3 11.3 0 0 0 .34-3.7 11.19 11.19 0 1 0-10.33 12 10.8 10.8 0 0 0 3.38-.79"/><path fill="url(#F)" d="M387.25 228.85a5 5 0 1 1-4.65 5.4 5 5 0 0 1 1.14-3.58l3.51 2.36-.25-4.15a2 2 0 0 1 .25-.03"/><path fill="url(#G)" d="m395.79 244.68 3.56-3.9-5.72-1.65z"/><circle cx="387.63" cy="233.88" r="16.54" fill="none" stroke="url(#H)" stroke-miterlimit="10" stroke-width="3"/><path fill="none" stroke="url(#I)" stroke-miterlimit="10" d="M362.24 247.88a29 29 0 1 1 34.05 13.66"/><path fill="none" stroke="url(#J)" stroke-miterlimit="10" stroke-width="3" d="M410.56 212.65a31.7 31.7 0 0 0-8-6.23"/><path fill="none" stroke="url(#K)" stroke-miterlimit="10" stroke-width="3" d="M393.68 203.22a31.2 31.2 0 0 1 8.07 2.79"/><path fill="none" stroke="url(#L)" stroke-miterlimit="10" stroke-width="3" d="M418.65 230.22a31 31 0 0 0-7-16.34"/><path fill="none" stroke="url(#M)" stroke-miterlimit="10" stroke-width="3" d="M418.55 238.33a31 31 0 0 0 .23-6.76v-.46"/><path fill="none" stroke="url(#N)" stroke-miterlimit="10" stroke-width="3" d="M418.27 240a30 30 0 0 1-1.08 4"/><path fill="none" stroke="url(#O)" stroke-miterlimit="10" stroke-width="3" d="m384.92 207.72.76-.07a26.3 26.3 0 1 1-24.29 28.17 26.7 26.7 0 0 1 .51-7.45"/><circle cx="368.55" cy="235.29" r="2.6" fill="none" stroke="url(#P)" stroke-miterlimit="10" stroke-width="3"/><circle cx="396.08" cy="216.67" r="2.6" fill="none" stroke="url(#Q)" stroke-miterlimit="10" stroke-width="3"/><circle cx="398.52" cy="249.65" r="2.6" fill="none" stroke="url(#R)" stroke-miterlimit="10" stroke-width="3"/></g><path fill="none" stroke="url(#e)" stroke-miterlimit="10" d="M37.83 329.48h121.66"/><path fill="none" stroke="url(#f)" stroke-miterlimit="10" d="M98.66 267.63v132.11"/><path fill="none" stroke="url(#S)" stroke-miterlimit="10" d="M352.5 329.48h121.66"/><path fill="none" stroke="url(#T)" stroke-miterlimit="10" d="M413.33 267.63v132.11"/><path fill="none" stroke="url(#U)" stroke-miterlimit="10" d="M195.2 447.61h121.66"/><path fill="none" stroke="url(#V)" stroke-miterlimit="10" d="M256.03 385.75v132.12"/><circle cx="256" cy="248.24" r="241.84" fill="url(#g)" opacity=".33" style="mix-blend-mode:screen"/><circle cx="256" cy="244.16" r="162.39" fill="url(#W)" opacity=".6" style="mix-blend-mode:color-dodge"/><circle cx="256" cy="256" r="241.11" fill="url(#X)" opacity=".38"/></g></svg>