<svg width="16" height="16" viewBox="0 0 16 16" xmlns="http://www.w3.org/2000/svg"><path fill-rule="evenodd" clip-rule="evenodd" d="M6.25 1L8 0L9.75 1H12L13.0908 2.90918L15 4V6.25L16 8L15 9.75V12L13.0908 13.0908L12 15H9.75L8 16L6.25 15H4L2.90918 13.0908L1 12V9.75L0 8L1 6.25V4L2.90918 2.90918L4 1H6.25ZM7 5.5C7 6.32843 6.32843 7 5.5 7C4.67157 7 4 6.32843 4 5.5C4 4.67157 4.67157 4 5.5 4C6.32843 4 7 4.67157 7 5.5ZM12 10.5C12 11.3284 11.3284 12 10.5 12C9.67157 12 9 11.3284 9 10.5C9 9.67157 9.67157 9 10.5 9C11.3284 9 12 9.67157 12 10.5ZM11.5303 4.46967C11.8232 4.76256 11.8232 5.23744 11.5303 5.53033L5.53033 11.5303C5.23744 11.8232 4.76256 11.8232 4.46967 11.5303C4.17678 11.2374 4.17678 10.7626 4.46967 10.4697L10.4697 4.46967C10.7626 4.17678 11.2374 4.17678 11.5303 4.46967Z" fill="white"/></svg>