<svg width="24" height="24" viewBox="0 0 24 24" xmlns="http://www.w3.org/2000/svg"><path d="M13.744 0.84381L12.0002 3.75013L10.2564 0.84381C9.97555 0.375659 9.3711 0.21932 8.89845 0.492571L8.222 0.883644C7.74152 1.16142 7.57915 1.77733 7.86026 2.25587L10.5003 6.75018V9.40208L8.20366 8.07612L5.63152 3.54268C5.35764 3.05997 4.74306 2.89262 4.26226 3.16984L3.58536 3.56013C3.11239 3.83283 2.94556 4.43447 3.21054 4.91181L4.85559 7.87514L1.46681 7.93215C0.920935 7.94133 0.483314 8.38664 0.483632 8.93259L0.484085 9.71395C0.484408 10.2689 0.936622 10.7175 1.4916 10.7133L6.7036 10.6742L9.00027 12.0001L6.7034 13.3262L1.49137 13.2871C0.93639 13.2829 0.484175 13.7315 0.483853 14.2865L0.483399 15.0678C0.483081 15.6138 0.920702 16.0591 1.46658 16.0683L4.85536 16.1253L3.21031 19.0886C2.94533 19.5659 3.11216 20.1676 3.58513 20.4403L4.26203 20.8306C4.74283 21.1078 5.35741 20.9404 5.63129 20.4577L8.20342 15.9243L10.5003 14.5982V17.2504L7.86026 21.7447C7.57915 22.2232 7.74152 22.8391 8.222 23.1169L8.89845 23.508C9.3711 23.7812 9.97555 23.6249 10.2564 23.1567L12.0002 20.2504L13.744 23.1567C14.0249 23.6249 14.6294 23.7812 15.102 23.508L15.7785 23.1169C16.259 22.8391 16.4213 22.2232 16.1402 21.7447L13.5003 17.2506V14.5982L15.7974 15.9245L18.3694 20.4577C18.6433 20.9404 19.2579 21.1078 19.7387 20.8306L20.4156 20.4403C20.8886 20.1676 21.0554 19.5659 20.7904 19.0886L19.1454 16.1253L22.5342 16.0682C23.08 16.0591 23.5176 15.6138 23.5173 15.0678L23.5169 14.2864C23.5166 13.7315 23.0643 13.2829 22.5094 13.2871L17.2971 13.3262L15.0003 12.0001L17.2969 10.6742L22.5091 10.7134C23.0641 10.7175 23.5163 10.269 23.5166 9.71396L23.5171 8.9326C23.5174 8.38665 23.0798 7.94135 22.5339 7.93216L19.1451 7.87515L20.7902 4.91182C21.0552 4.43448 20.8883 3.83284 20.4154 3.56014L19.7385 3.16985C19.2577 2.89263 18.6431 3.05998 18.3692 3.54269L15.7972 8.07596L13.5003 9.40206V6.75001L16.1402 2.25587C16.4213 1.77733 16.259 1.16142 15.7785 0.883644L15.102 0.492571C14.6294 0.21932 14.0249 0.375659 13.744 0.84381Z" fill="white"/></svg>