<svg width="25" height="25" viewBox="0 0 25 25" xmlns="http://www.w3.org/2000/svg"><path fill-rule="evenodd" clip-rule="evenodd" d="M22.6994 22.102C24.5334 20.268 24.4119 16.9136 22.7224 13.3196L21.7014 13.5748C22.8496 16.0851 22.9806 18.2905 21.8187 19.4524C19.9902 21.2809 15.577 19.9074 11.4589 16.406L22.4 8.20018C23.4072 7.44477 24 6.25921 24 5.00018C24 2.79104 22.2091 1.00018 20 1.00018C18.741 1.00018 17.5554 1.59296 16.8 2.60018L15.3621 4.51732C10.5318 0.89626 5.35464 -0.151242 2.90044 2.30296C-0.0282748 5.23168 2.02969 12.038 7.49703 17.5054C12.9644 22.9727 19.7707 25.0307 22.6994 22.102ZM14.7631 5.31612C11 2.50647 7.21405 1.53012 5.55526 3.18891C3.72796 5.01621 5.0984 9.42479 8.59468 13.5406L14.7631 5.31612Z" fill="white"/><path d="M0 25.0002L6 20.5002V17.0002L0 25.0002Z" fill="white"/></svg>