<svg width="24" height="24" viewBox="0 0 24 24" xmlns="http://www.w3.org/2000/svg"><path d="M0 24L21.2784 10.701C22.9715 9.64283 24 7.78712 24 5.79058C24 2.59253 21.4075 0 18.2094 0H18.0815C16.1502 0 14.3404 0.942292 13.2329 2.52446L4.5 15L18 6L0 24Z" fill="white"/><path d="M2.67035 4.31859L0 15L5.83536 5.66342C6.56002 4.50396 5.72646 3 4.35917 3C3.56038 3 2.86409 3.54365 2.67035 4.31859Z" fill="white"/><path d="M6 24L20.4776 16.7612C22.0959 15.952 24 17.1288 24 18.9382C24 20.128 23.1398 21.1434 21.9662 21.339L6 24Z" fill="white"/></svg>