<svg width="24" height="24" viewBox="0 0 24 24" xmlns="http://www.w3.org/2000/svg"><path d="M8.5 0C7.94772 0 7.5 0.447716 7.5 1V7.5L1 7.5C0.447715 7.5 0 7.94771 0 8.5V15.5C0 16.0523 0.447715 16.5 1 16.5H7.5V23C7.5 23.5523 7.94772 24 8.5 24H9L12 13L8.5 13.5L12 0H8.5Z" fill="white"/><path d="M15.5 24C16.0523 24 16.5 23.5523 16.5 23V16.5H23C23.5523 16.5 24 16.0523 24 15.5V8.5C24 7.94771 23.5523 7.5 23 7.5L16.5 7.5V1C16.5 0.447715 16.0523 0 15.5 0H15L12 11L15.5 10.5L12 24H15.5Z" fill="white"/></svg>