<svg width="24" height="24" viewBox="0 0 24 24" xmlns="http://www.w3.org/2000/svg"><g><path d="M12 17.2502C14.8995 17.2502 17.25 14.8997 17.25 12.0002C17.25 9.10069 14.8995 6.75018 12 6.75018C9.1005 6.75018 6.75 9.10069 6.75 12.0002C6.75 14.8997 9.1005 17.2502 12 17.2502Z" fill="white"/><path fill-rule="evenodd" clip-rule="evenodd" d="M6.41421 0.585969C6.78929 0.210896 7.29799 0.000183105 7.82843 0.000183105H16.1716C16.702 0.000183105 17.2107 0.210897 17.5858 0.58597L23.4142 6.4144C23.7893 6.78947 24 7.29818 24 7.82861V16.1718C24 16.7022 23.7893 17.2109 23.4142 17.586L17.5858 23.4144C17.2107 23.7895 16.702 24.0002 16.1716 24.0002H7.82843C7.29799 24.0002 6.78929 23.7895 6.41421 23.4144L0.585786 17.586C0.210713 17.2109 0 16.7022 0 16.1718V7.82861C0 7.29818 0.210714 6.78947 0.585786 6.4144L6.41421 0.585969ZM3 15.7575V8.24282L8.24264 3.00018H15.7574L21 8.24282V15.7575L15.7574 21.0002H8.24264L3 15.7575Z" fill="white"/></g><defs><clipPath><rect width="24" height="24" fill="white"/></clipPath></defs></svg>