<svg width="24" height="24" viewBox="0 0 24 24" xmlns="http://www.w3.org/2000/svg"><path fill-rule="evenodd" clip-rule="evenodd" d="M14.9091 10.9548L12.4783 9.73937L10.7234 11.7449L9 6.00024L22.5528 12.7766C23.2177 13.1091 24 12.6256 24 11.8822V2.00024C23.9664 0.889975 23.0548 0.000244141 21.9364 0.000244141C21.3413 0.000244141 20.7752 0.257123 20.3834 0.704956L15.2174 6.60894L8.05481 3.02765C7.27327 2.63688 6.40168 3.36596 6.64824 4.20424L9.33333 13.3336L5.28431 17.961L1.17889 17.2146C0.565046 17.103 0 17.5746 0 18.1985V24.0002L5.30233 19.3607L11.8677 20.6738C12.6075 20.8218 13.2385 20.1285 13.0217 19.4059L11.8163 15.388L10.2771 16.5424L11 19.0002L6.62366 18.2045L14.9091 10.9548ZM4.24468 19.1492L0 24.0002L1 18.5002L4.24468 19.1492ZM18.1818 8.09115L22 10.0002V4.75024L18.1818 8.09115Z" fill="white"/></svg>