<svg width="24" height="24" viewBox="0 0 24 24" xmlns="http://www.w3.org/2000/svg"><path d="M13.5 4.5L13.7574 4.24264C16.4739 1.52612 20.1583 0 24 0C24 3.84174 22.4739 7.52612 19.7574 10.2426L19.5 10.5L13.5 4.5Z" fill="white"/><path d="M0 16.5L7.5 24L8.08394 23.4161C8.34073 23.1593 8.43812 22.7834 8.33835 22.4342L7.83333 20.6667L9 19.5L10.1464 20.6464C10.3417 20.8417 10.6583 20.8417 10.8536 20.6464L16.9393 14.5607C17.6185 13.8815 18 12.9604 18 12L12 6C11.0396 6 10.1185 6.38153 9.43934 7.06066L3.35355 13.1464C3.15829 13.3417 3.15829 13.6583 3.35355 13.8536L4.5 15L3.33333 16.1667L1.56576 15.6616C1.21657 15.5619 0.840734 15.6593 0.583936 15.9161L0 16.5Z" fill="white"/></svg>