<svg width="24" height="24" viewBox="0 0 24 24" xmlns="http://www.w3.org/2000/svg"><path fill-rule="evenodd" clip-rule="evenodd" d="M15.25 0.876694C13.2389 -0.284419 10.7611 -0.284419 8.75003 0.876694L3.9917 3.62392C1.98059 4.78503 0.741699 6.93086 0.741699 9.25308V14.7475C0.741699 17.0698 1.98059 19.2156 3.9917 20.3767L8.75003 23.1239C10.7611 24.285 13.2389 24.285 15.25 23.1239L20.0084 20.3767C22.0195 19.2156 23.2584 17.0698 23.2584 14.7475V9.25308C23.2584 6.93086 22.0195 4.78503 20.0084 3.62392L15.25 0.876694ZM15 4.50031C15 6.15717 13.6568 7.50031 12 7.50031C10.3433 7.50031 9.00003 6.15717 9.00003 4.50031C9.00003 2.84345 10.3433 1.50031 12 1.50031C13.6568 1.50031 15 2.84345 15 4.50031ZM15 19.5003C15 21.1572 13.6568 22.5003 12 22.5003C10.3433 22.5003 9.00003 21.1572 9.00003 19.5003C9.00003 17.8434 10.3433 16.5003 12 16.5003C13.6568 16.5003 15 17.8434 15 19.5003ZM15.8971 9.75036C16.7256 11.1852 18.5603 11.6769 19.9952 10.8484C21.4301 10.02 21.9217 8.18524 21.0933 6.75036C20.2649 5.31548 18.4301 4.82386 16.9952 5.65228C15.5603 6.48071 15.0687 8.31548 15.8971 9.75036ZM2.90676 17.2504C3.73519 18.6852 5.56996 19.1769 7.00483 18.3484C8.43971 17.52 8.93134 15.6852 8.10291 14.2504C7.27448 12.8155 5.43971 12.3239 4.00483 13.1523C2.56996 13.9807 2.07833 15.8155 2.90676 17.2504ZM7.00484 5.65218C8.43972 6.4806 8.93135 8.31537 8.10292 9.75025C7.27449 11.1851 5.43972 11.6768 4.00484 10.8483C2.56997 10.0199 2.07834 8.18513 2.90677 6.75025C3.73519 5.31537 5.56997 4.82375 7.00484 5.65218ZM19.9952 13.1522C21.4301 13.9806 21.9217 15.8154 21.0933 17.2503C20.2649 18.6851 18.4301 19.1768 16.9952 18.3483C15.5603 17.5199 15.0687 15.6851 15.8971 14.2503C16.7256 12.8154 18.5603 12.3237 19.9952 13.1522Z" fill="white"/></svg>