<svg xmlns="http://www.w3.org/2000/svg" xml:space="preserve" fill-rule="evenodd" stroke-miterlimit="10" clip-rule="evenodd" viewBox="0 0 24 24"><path fill="none" stroke="currentColor" stroke-width="1.834" d="M23.003 12.002C23.003 5.928 18.076 1 12.002 1S1 5.928 1 12.002s4.928 11.001 11.002 11.001 11.001-4.927 11.001-11.001Z"/><path fill-rule="nonzero" stroke="currentColor" stroke-linecap="round" stroke-linejoin="round" stroke-miterlimit="4" stroke-width="1.834" d="m11.673 6.848.329 6.987.328-6.987v-.015a.33.33 0 0 0-.328-.33h-.004a.33.33 0 0 0-.325.33z"/><path fill-rule="nonzero" d="M12.002 18.414c-.629 0-1.146-.517-1.146-1.146s.517-1.146 1.146-1.146 1.146.518 1.146 1.146-.518 1.146-1.146 1.146"/></svg>