<svg xmlns="http://www.w3.org/2000/svg" xml:space="preserve" fill-rule="evenodd" stroke-linejoin="round" stroke-miterlimit="2" clip-rule="evenodd" viewBox="0 0 24 24"><path fill-rule="nonzero" d="M12.2.003a7.47 7.47 0 0 0-5.533 2.2 7.33 7.33 0 0 0-2.333 5.466c0 .914.753 1.666 1.666 1.666s1.667-.752 1.667-1.666A4.33 4.33 0 0 1 9 4.536a4.13 4.13 0 0 1 3.133-1.2c2.344.047 4.246 1.987 4.246 4.332a4.346 4.346 0 0 1-3.58 4.267 2.94 2.94 0 0 0-2.466 2.933V17c0 .913.753 1.666 1.666 1.666s1.667-.753 1.667-1.666v-1.867a7.754 7.754 0 0 0 5.999-7.665c-.169-4.03-3.436-7.297-7.466-7.466"/><circle cx="24" cy="39.5" r="2.5" transform="translate(-3.998 -3.996)scale(.66656)"/></svg>