<svg xmlns="http://www.w3.org/2000/svg" xml:space="preserve" fill-rule="evenodd" stroke-linejoin="round" stroke-miterlimit="2" clip-rule="evenodd" viewBox="0 0 45 45"><path d="M34.75 15h4.92c.53 0 1.04.21 1.41.59l1.83 1.83c.38.38.59.88.59 1.41v22.34c0 .53-.21 1.04-.59 1.41l-1.83 1.83c-.38.38-.88.59-1.41.59H5.33c-.53 0-1.04-.21-1.41-.59l-1.83-1.83c-.38-.38-.59-.88-.59-1.41V18.83c0-.53.21-1.04.59-1.41l1.83-1.83c.38-.38.88-.59 1.41-.59h4.92c.14 0 .25-.11.25-.25v-2.32C10.5 5.8 15.68.1 22.31 0S34.5 5.31 34.5 12v2.75c0 .14.11.25.25.25M30 14.75v-2.44c0-4.11-3.16-7.69-7.27-7.81S15 7.78 15 12v2.75c0 .14.11.25.25.25h14.5c.14 0 .25-.11.25-.25M18.62 27.88l1.76-1.76a3.014 3.014 0 0 1 4.24 0l1.76 1.76a3.014 3.014 0 0 1 0 4.24l-1.76 1.76a3.014 3.014 0 0 1-4.24 0l-1.76-1.76a3.014 3.014 0 0 1 0-4.24"/></svg>