<svg xmlns="http://www.w3.org/2000/svg" viewBox="0 0 24 24"><path d="M14.25 17.625c0 .621-.504 1.125-1.125 1.125h-2.25a1.125 1.125 0 0 1 0-2.25h2.25c.621 0 1.125.504 1.125 1.125"/><path fill-rule="evenodd" d="M12 24c6.627 0 12-5.373 12-12S18.627 0 12 0 0 5.373 0 12s5.373 12 12 12m9-12a9 9 0 1 1-18 0zM6.75 6c.293 0 .572.057.829.158A1.5 1.5 0 0 0 8.25 9h1.5a.75.75 0 0 0 .75-.75 3.75 3.75 0 1 0-7.5 0 .75.75 0 1 0 1.5 0A2.25 2.25 0 0 1 6.75 6m11.329.158A2.25 2.25 0 0 0 15 8.25a.75.75 0 0 1-1.5 0 3.75 3.75 0 1 1 7.5 0 .75.75 0 0 1-.783.75H18.75a1.5 1.5 0 0 1-.671-2.842" clip-rule="evenodd"/></svg>