<svg xmlns="http://www.w3.org/2000/svg" viewBox="0 0 48 48"><path d="M47.49 24.54c0-1.58-.14-3.08-.38-4.54h-22.6v9.02h12.94c-.58 2.96-2.28 5.46-4.8 7.16v6h7.72c4.52-4.18 7.12-10.34 7.12-17.64"/><path d="M24.51 48c6.48 0 11.9-2.16 15.86-5.82l-7.72-6c-2.16 1.44-4.9 2.32-8.14 2.32-6.26 0-11.56-4.22-13.46-9.92H3.09v6.18C7.03 42.6 15.13 48 24.51 48"/><path d="M11.05 28.58c-.5-1.44-.76-2.98-.76-4.58s.28-3.14.76-4.58v-6.18H3.09a23.72 23.72 0 0 0 0 21.52z"/><path d="M24.51 9.5c3.54 0 6.7 1.22 9.2 3.6l6.84-6.84C36.41 2.38 30.99 0 24.51 0 15.13 0 7.03 5.4 3.09 13.24l7.96 6.18c1.9-5.7 7.2-9.92 13.46-9.92"/></svg>