<svg xmlns="http://www.w3.org/2000/svg" xml:space="preserve" fill-rule="evenodd" stroke-linejoin="round" clip-rule="evenodd" viewBox="0 0 24 24"><g fill-rule="nonzero"><path d="m17.755 3.864-3.535 7.07-.96-.6 2.062-8.248zm-3.46 8.444A1.5 1.5 0 0 1 15 13.58v.681a.225.225 0 0 1-.326.2L10.5 12.374V11.25a.377.377 0 0 1 .366-.375h.704a1.5 1.5 0 0 1 .795.228z"/><path d="m7.627 10.937 1.12-.747a2.63 2.63 0 0 1 1.457-.441h1.366c.335 0 .665.064.974.187l.918-9.181a3 3 0 0 0-3.232.197L1.241 7.52a3.04 3.04 0 0 0-1.093 3.385L3.58 21.532a3.01 3.01 0 0 0 2.864 2.092h11.11c1.305 0 2.46-.845 2.864-2.092l2.7-8.36-5.869.327 6.593-2.564.01-.03a3.04 3.04 0 0 0-.407-2.685l-7.422 4.639a2.6 2.6 0 0 1 .101.721v.669h.288a1.5 1.5 0 0 1 .66.153l1.815.89a2.625 2.625 0 0 1 1.343 3.165l-.804 2.484a2.255 2.255 0 0 1-2.14 1.558h-2.015c-.315 0-.627-.057-.922-.167l-2.554-.958h-1.063a2.63 2.63 0 0 1-2.154 1.125H6.44A1.88 1.88 0 0 1 4.657 21.2L3.23 16.784a1.5 1.5 0 0 1 .788-1.818l2.357-1.111v-1.481l-4.657-2.15a.38.38 0 0 1-.218-.34V8.856c0-.142.08-.272.207-.336l.375-.187a.38.38 0 0 1 .336 0z"/><path d="M7.5 13.874v.295c0 .058.033.11.085.135l.17.082a.75.75 0 0 1 .417.782l-.601 4.211a1.5 1.5 0 0 1-.425.849l-.954.954a.11.11 0 0 0-.012.145.8.8 0 0 0 .26.047h2.14c.686 0 1.288-.47 1.455-1.136l.901-3.605a1.505 1.505 0 0 0-.9-1.745zm8.256 7.5h1.53c.487 0 .921-.316 1.07-.779l.804-2.485a1.505 1.505 0 0 0-.767-1.808l-1.815-.89a.4.4 0 0 0-.078-.028v.272a.15.15 0 0 0 .083.134l.085.043a.75.75 0 0 1 .376.908l-1.238 3.715a.75.75 0 0 1-.181.293l-.433.433c-.07.07-.02.192.08.192h.478zm-.46-9.708a2.6 2.6 0 0 1 .4.475l6.091-5.33-1.318-.964zM12 15.374l3.069 1.227c.376.15.566.58.423.96l-.684 1.826a.75.75 0 0 1-.703.487H11.25l.75-3a3.1 3.1 0 0 0 0-1.5"/></g></svg>