<svg xmlns="http://www.w3.org/2000/svg" xml:space="preserve" fill-rule="evenodd" stroke-linejoin="round" stroke-miterlimit="2" clip-rule="evenodd" viewBox="0 0 24 24"><path fill-rule="nonzero" d="M15.563 3.562c0 1.954-1.608 3.562-3.562 3.562S8.439 5.516 8.439 3.562 10.047 0 12 0s3.562 1.608 3.562 3.562m-10.85.767c-1.955 0-3.563 1.608-3.563 3.562s1.608 3.562 3.562 3.562 3.563-1.608 3.563-3.562S6.667 4.33 4.712 4.33m0 8.275c-1.954 0-3.562 1.608-3.562 3.562s1.608 3.562 3.562 3.562a3.58 3.58 0 0 0 3.563-3.56v-.002a3.58 3.58 0 0 0-3.563-3.562M19.29 4.329c-1.954 0-3.562 1.608-3.562 3.562s1.608 3.562 3.562 3.562 3.562-1.608 3.562-3.562S21.243 4.33 19.29 4.33m0 8.275c-1.954 0-3.562 1.608-3.562 3.562s1.608 3.562 3.562 3.562a3.58 3.58 0 0 0 3.562-3.56v-.002a3.58 3.58 0 0 0-3.562-3.562m-7.288 4.274c-1.954 0-3.562 1.608-3.562 3.562s1.608 3.562 3.562 3.562 3.562-1.608 3.562-3.562-1.608-3.562-3.562-3.562"/></svg>