<svg xmlns="http://www.w3.org/2000/svg" xml:space="preserve" fill-rule="evenodd" stroke-linejoin="round" stroke-miterlimit="2" clip-rule="evenodd" viewBox="0 0 24 24"><path fill-rule="nonzero" d="M20.833 0H3.17a1.32 1.32 0 0 0-1.313 1.313V22.69c0 .72.593 1.313 1.313 1.313h11.035a1.88 1.88 0 0 0 1.755-1.214c.434-1.15.875-2.297 1.39-3.415a.51.51 0 0 1 .46-.294h2.46a1.884 1.884 0 0 0 1.875-1.875V1.313c0-.72-.592-1.313-1.312-1.313m-8.879 14.697a.283.283 0 0 1-.28.281H6.047a.283.283 0 0 1-.282-.281V13.22c0-.154.127-.281.282-.281h5.625c.154 0 .281.127.281.281zm6.282-3.375a.283.283 0 0 1-.281.28H6.048a.283.283 0 0 1-.282-.28V9.845c0-.155.127-.281.282-.281h11.907c.154 0 .281.126.281.28zm0-3.376a.283.283 0 0 1-.281.281H6.048a.283.283 0 0 1-.282-.28V6.468c0-.154.127-.28.282-.28h11.907c.154 0 .281.126.281.28z"/></svg>