<svg xmlns="http://www.w3.org/2000/svg" xml:space="preserve" fill-rule="evenodd" stroke-linejoin="round" stroke-miterlimit="2" clip-rule="evenodd" viewBox="0 0 24 24"><path fill-rule="nonzero" d="M12 4.417H6.696A2.208 2.217 0 0 1 4.5 2.212C4.5.244 6.866-.74 8.25.65zm0 0L15.75.651c1.384-1.39 3.75-.406 3.75 1.56a2.21 2.21 0 0 1-2.196 2.205zM0 7.43c0-.832.672-1.507 1.5-1.507h21c.828 0 1.5.675 1.5 1.507v3.013c0 .831-.672 1.506-1.5 1.506h-21c-.828 0-1.5-.675-1.5-1.506zm13.5 3.013v-4.52h-3v4.52zm9 12.05v-9.038h-9v9.038h-3v-9.038h-9v9.038C1.5 23.325 2.172 24 3 24h18c.828 0 1.5-.675 1.5-1.507"/></svg>