<svg xmlns="http://www.w3.org/2000/svg" xml:space="preserve" fill-rule="evenodd" stroke-linejoin="round" stroke-miterlimit="2" clip-rule="evenodd" viewBox="0 0 24 24"><path d="M18.533 8h2.624c.282 0 .554.112.752.314l.976.976c.202.203.314.47.314.752v11.915c0 .282-.112.554-.314.752l-.976.976c-.203.202-.47.314-.752.314H2.843a1.05 1.05 0 0 1-.752-.314l-.976-.976a1.06 1.06 0 0 1-.315-.752V10.042c0-.282.112-.554.315-.752l.976-.976C2.293 8.112 2.56 8 2.843 8h2.624a.13.13 0 0 0 .133-.134V6.63C5.6 3.093 8.362.053 11.898 0S18.4 2.832 18.4 6.4v1.466c0 .075.058.134.133.134M16 7.866v-1.3c0-2.193-1.686-4.102-3.878-4.166S8 4.15 8 6.4v1.466c0 .075.058.134.133.134h7.733A.13.13 0 0 0 16 7.866M9.93 14.87l.94-.939a1.614 1.614 0 0 1 2.26 0l.939.939a1.614 1.614 0 0 1 0 2.261l-.939.939a1.614 1.614 0 0 1-2.26 0l-.94-.939a1.614 1.614 0 0 1 0-2.261"/></svg>