<svg width="48" height="48" viewBox="0 0 48 48" xmlns="http://www.w3.org/2000/svg"><path d="M47.4898 24.54C47.4898 22.96 47.3498 21.46 47.1098 20H24.5098V29.02H37.4498C36.8698 31.98 35.1698 34.48 32.6498 36.18V42.18H40.3698C44.8898 38 47.4898 31.84 47.4898 24.54Z" fill="white"/><path d="M24.5098 48.0001C30.9898 48.0001 36.4098 45.8401 40.3698 42.1801L32.6498 36.1801C30.4898 37.6201 27.7498 38.5001 24.5098 38.5001C18.2498 38.5001 12.9498 34.2801 11.0498 28.5801H3.08984V34.7601C7.02984 42.6001 15.1298 48.0001 24.5098 48.0001Z" fill="white"/><path d="M11.0498 28.5802C10.5498 27.1402 10.2898 25.6002 10.2898 24.0002C10.2898 22.4002 10.5698 20.8602 11.0498 19.4202V13.2402H3.08976C1.44976 16.4802 0.509766 20.1202 0.509766 24.0002C0.509766 27.8802 1.44976 31.5202 3.08976 34.7602L11.0498 28.5802Z" fill="white"/><path d="M24.5098 9.5C28.0498 9.5 31.2098 10.72 33.7098 13.1L40.5498 6.26C36.4098 2.38 30.9898 0 24.5098 0C15.1298 0 7.02984 5.40001 3.08984 13.24L11.0498 19.42C12.9498 13.72 18.2498 9.5 24.5098 9.5Z" fill="white"/></svg>