<svg width="48" height="48" viewBox="0 0 48 48" xmlns="http://www.w3.org/2000/svg"><path fill-rule="evenodd" clip-rule="evenodd" d="M3.37413 3.37413C0 6.74826 0 12.1788 0 23.04V24.96C0 35.8212 0 41.2517 3.37413 44.6259C6.74826 48 12.1788 48 23.04 48H24.96C35.8212 48 41.2517 48 44.6259 44.6259C48 41.2517 48 35.8212 48 24.96V23.04C48 12.1788 48 6.74826 44.6259 3.37413C41.2517 0 35.8212 0 24.96 0H23.04C12.1788 0 6.74826 0 3.37413 3.37413ZM8.10059 14.5996C8.36059 27.0796 14.6005 34.5796 25.5405 34.5796H26.1607V27.4396C30.1807 27.8396 33.2204 30.7796 34.4404 34.5796H40.1206C38.5606 28.8996 34.4604 25.7596 31.9004 24.5596C34.4604 23.0796 38.0604 19.4796 38.9204 14.5996H33.7603C32.6403 18.5596 29.3207 22.1596 26.1607 22.4996V14.5996H21.0005V28.4396C17.8005 27.6396 13.7606 23.7596 13.5806 14.5996H8.10059Z" fill="white"/></svg>